<?xml version="1.0" encoding="iso-8859-1"?>
<!-- Uploaded to: SVG Repo, www.svgrepo.com, Generator: SVG Repo Mixer Tools -->
<svg height="800px" width="800px" version="1.1" id="Layer_1" xmlns="http://www.w3.org/2000/svg" xmlns:xlink="http://www.w3.org/1999/xlink" 
	 viewBox="0 0 512 512" xml:space="preserve">
<polygon style="fill:#FBB429;" points="397.63,501.801 256,347.341 114.37,501.801 114.37,10.199 397.63,10.199 "/>
<g>
	<path style="fill:#4D4D4D;" d="M397.63,0H114.37c-5.632,0-10.199,4.567-10.199,10.199v491.602c0,4.206,2.581,7.98,6.501,9.505
		c3.919,1.525,8.373,0.489,11.215-2.612L256,362.433l134.113,146.261c1.97,2.148,4.714,3.306,7.519,3.306
		c1.241,0,2.494-0.226,3.696-0.695c3.92-1.525,6.501-5.298,6.501-9.505V10.199C407.829,4.567,403.263,0,397.63,0z M387.431,475.587
		L266.199,343.374V117.448c0-5.632-4.567-10.199-10.199-10.199c-5.632,0-10.199,4.567-10.199,10.199v225.926L124.569,475.587V20.398
		h262.863v455.188H387.431z"/>
	<path style="fill:#4D4D4D;" d="M256,89.674c5.632,0,10.199-4.567,10.199-10.199V69.212c0-5.632-4.567-10.199-10.199-10.199
		c-5.632,0-10.199,4.567-10.199,10.199v10.263C245.801,85.107,250.368,89.674,256,89.674z"/>
</g>
</svg>