<?xml version="1.0" encoding="iso-8859-1"?>
<!-- Uploaded to: SVG Repo, www.svgrepo.com, Generator: SVG Repo Mixer Tools -->
<svg version="1.1" id="Layer_1" xmlns="http://www.w3.org/2000/svg" xmlns:xlink="http://www.w3.org/1999/xlink" 
	 viewBox="0 0 512 512" xml:space="preserve">
<rect x="10.199" y="106.072" style="fill:#F2F2F2;" width="491.602" height="343.632"/>
<rect x="10.199" y="62.297" style="fill:#847C7C;" width="444.685" height="43.779"/>
<rect x="454.884" y="62.297" style="fill:#FF757C;" width="46.916" height="43.779"/>
<circle style="fill:#1FCFC1;" cx="256" cy="277.928" r="111.681"/>
<g>
	<path style="fill:#4D4D4D;" d="M10.199,52.093C4.567,52.093,0,56.661,0,62.293v387.415c0,5.632,4.567,10.199,10.199,10.199h491.602
		c5.632,0,10.199-4.567,10.199-10.199V62.293c0-5.632-4.567-10.199-10.199-10.199H10.199z M491.602,95.873h-26.518V72.492h26.518
		V95.873z M20.398,72.492h424.287v23.381H20.398V72.492z M491.602,116.271v323.237H20.398V116.271H491.602z"/>
	<path style="fill:#4D4D4D;" d="M256,156.048c-67.206,0-121.88,54.675-121.88,121.88s54.675,121.88,121.88,121.88
		s121.88-54.675,121.88-121.88S323.206,156.048,256,156.048z M356.972,267.729h-29.3c-1.489-31.23-9.771-58.745-22.436-78.511
		C333.558,205,353.585,233.946,356.972,267.729z M245.801,179.69v88.04h-41.042C207.119,224.557,224.239,188.513,245.801,179.69z
		 M245.801,288.128v88.04c-21.562-8.824-38.682-44.867-41.042-88.04H245.801z M266.199,376.167v-88.04h41.042
		C304.881,331.3,287.761,367.344,266.199,376.167z M266.199,267.729v-88.04c21.562,8.824,38.681,44.867,41.042,88.04H266.199z
		 M206.764,189.218c-12.665,19.765-20.946,47.281-22.436,78.511h-29.3C158.415,233.946,178.442,205,206.764,189.218z
		 M155.028,288.128h29.3c1.489,31.23,9.771,58.745,22.436,78.511C178.442,350.857,158.415,321.91,155.028,288.128z M305.236,366.639
		c12.664-19.765,20.946-47.281,22.436-78.511h29.3C353.585,321.91,333.558,350.857,305.236,366.639z"/>
	<path style="fill:#4D4D4D;" d="M469.163,425.307c5.632,0,10.199-4.567,10.199-10.199V297.817c0-5.632-4.567-10.199-10.199-10.199
		s-10.199,4.567-10.199,10.199v117.291C458.964,420.74,463.531,425.307,469.163,425.307z"/>
	<path style="fill:#4D4D4D;" d="M469.163,274.359c5.632,0,10.199-4.567,10.199-10.199v-7.139c0-5.632-4.567-10.199-10.199-10.199
		s-10.199,4.567-10.199,10.199v7.139C458.964,269.791,463.531,274.359,469.163,274.359z"/>
</g>
</svg>