<?xml version="1.0" encoding="iso-8859-1"?>
<!-- Uploaded to: SVG Repo, www.svgrepo.com, Generator: SVG Repo Mixer Tools -->
<svg version="1.1" id="Layer_1" xmlns="http://www.w3.org/2000/svg" xmlns:xlink="http://www.w3.org/1999/xlink" 
	 viewBox="0 0 512 512" xml:space="preserve">
<rect x="10.199" y="142.36" style="fill:#F2F2F2;" width="491.602" height="343.632"/>
<rect x="10.199" y="67.825" style="fill:#FBB429;" width="491.602" height="74.536"/>
<rect x="78.534" y="210.695" style="fill:#1FCFC1;" width="354.932" height="206.962"/>
<g>
	<path style="fill:#4D4D4D;" d="M469.163,461.591c5.633,0,10.199-4.567,10.199-10.199V334.101c0-5.632-4.566-10.199-10.199-10.199
		s-10.199,4.567-10.199,10.199v117.291C458.964,457.025,463.53,461.591,469.163,461.591z"/>
	<path style="fill:#4D4D4D;" d="M469.163,310.643c5.633,0,10.199-4.567,10.199-10.199v-7.139c0-5.632-4.566-10.199-10.199-10.199
		s-10.199,4.567-10.199,10.199v7.139C458.964,306.077,463.53,310.643,469.163,310.643z"/>
	<path style="fill:#4D4D4D;" d="M512,67.825c0-5.632-4.566-10.199-10.199-10.199h-42.837V26.008c0-5.632-4.566-10.199-10.199-10.199
		s-10.199,4.567-10.199,10.199v31.618h-42.837V26.008c0-5.632-4.566-10.199-10.199-10.199c-5.633,0-10.199,4.567-10.199,10.199
		v31.618h-45.896V26.008c0-5.632-4.566-10.199-10.199-10.199s-10.199,4.567-10.199,10.199v31.618h-42.837V26.008
		c0-5.632-4.566-10.199-10.199-10.199s-10.199,4.567-10.199,10.199v31.618h-42.837V26.008c0-5.632-4.566-10.199-10.199-10.199
		c-5.633,0-10.199,4.567-10.199,10.199v31.618h-45.896V26.008c0-5.632-4.566-10.199-10.199-10.199
		c-5.633,0-10.199,4.567-10.199,10.199v31.618H73.434V26.008c0-5.632-4.566-10.199-10.199-10.199s-10.199,4.567-10.199,10.199
		v31.618H10.199C4.566,57.625,0,62.193,0,67.825v418.167c0,5.632,4.566,10.199,10.199,10.199h491.602
		c5.633,0,10.199-4.567,10.199-10.199V67.825z M20.398,78.024h32.637v22.438c0,5.632,4.566,10.199,10.199,10.199
		s10.199-4.567,10.199-10.199V78.024h42.837v22.438c0,5.632,4.566,10.199,10.199,10.199s10.199-4.567,10.199-10.199V78.024h45.896
		v22.438c0,5.632,4.566,10.199,10.199,10.199c5.633,0,10.199-4.567,10.199-10.199V78.024h42.837v22.438
		c0,5.632,4.566,10.199,10.199,10.199c5.633,0,10.199-4.567,10.199-10.199V78.024h42.837v22.438c0,5.632,4.566,10.199,10.199,10.199
		s10.199-4.567,10.199-10.199V78.024h45.896v22.438c0,5.632,4.566,10.199,10.199,10.199c5.633,0,10.199-4.567,10.199-10.199V78.024
		h42.837v22.438c0,5.632,4.566,10.199,10.199,10.199s10.199-4.567,10.199-10.199V78.024h32.637v54.133H20.398V78.024z
		 M491.602,475.793H20.398V152.556h471.203V475.793z"/>
	<path style="fill:#4D4D4D;" d="M78.534,427.857h354.932c5.633,0,10.199-4.567,10.199-10.199V210.691
		c0-5.632-4.566-10.199-10.199-10.199H78.534c-5.633,0-10.199,4.567-10.199,10.199v206.966
		C68.335,423.289,72.901,427.857,78.534,427.857z M304.956,289.696v48.956h-97.912v-48.956H304.956z M207.044,269.298V220.89h97.912
		v48.407H207.044z M423.267,338.652h-97.912v-48.956h97.912V338.652z M304.956,359.051v48.407h-97.912v-48.407H304.956z
		 M186.645,338.652H88.733v-48.956h97.912V338.652z M88.733,359.051h97.912v48.407H88.733V359.051z M325.355,407.458v-48.407h97.912
		v48.407H325.355z M423.267,269.298h-97.912V220.89h97.912V269.298z M186.645,220.89v48.407H88.733V220.89L186.645,220.89
		L186.645,220.89z"/>
</g>
</svg>