<?xml version="1.0" encoding="iso-8859-1"?>
<!-- Uploaded to: SVG Repo, www.svgrepo.com, Generator: SVG Repo Mixer Tools -->
<svg version="1.1" id="Layer_1" xmlns="http://www.w3.org/2000/svg" xmlns:xlink="http://www.w3.org/1999/xlink" 
	 viewBox="0 0 392.598 392.598" xml:space="preserve">
<path style="fill:#FFFFFF;" d="M262.788,239.903V83.329h-46.352l4.59,11.119c3.62,5.301,0.453,16.356-9.568,16.356H73.309
	c-7.499,0-13.123-8.275-10.149-14.998l5.107-12.541H21.851v287.354h231.305c-16.743-15.321-27.345-37.172-27.345-61.608
	C225.745,280.307,240.549,254.901,262.788,239.903z"/>
<path style="fill:#56ACE0;" d="M43.636,348.962h192.388c-6.465-11.83-10.279-25.341-10.279-39.822
	c0-17.842,5.624-34.392,15.192-47.968V105.18h-20.04c-1.681,3.168-4.848,5.689-9.568,5.689H73.309c-4.073,0-7.499-2.457-9.438-5.689
	H43.636V348.962z"/>
<path style="fill:#194F82;" d="M222.513,168.081h-85.01c-6.012,0-10.925-4.848-10.925-10.925c0-6.012,4.848-10.925,10.925-10.925
	h85.01c6.012,0,10.925,4.848,10.925,10.925C233.438,163.168,228.525,168.081,222.513,168.081z"/>
<rect x="72.986" y="149.139" style="fill:#FFFFFF;" width="15.903" height="15.903"/>
<g>
	<path style="fill:#194F82;" d="M99.814,127.354H62.125c-6.012,0-10.925,4.848-10.925,10.925v37.689
		c0,6.012,4.848,10.925,10.925,10.925h37.689c6.012,0,10.925-4.848,10.925-10.925v-37.689
		C110.739,132.202,105.826,127.354,99.814,127.354z M88.954,165.042H73.05v-15.903h15.903V165.042z"/>
	<path style="fill:#194F82;" d="M222.513,241.519h-85.01c-6.012,0-10.925-4.848-10.925-10.925c0-6.012,4.848-10.925,10.925-10.925
		h85.01c6.012,0,10.925,4.848,10.925,10.925C233.438,236.671,228.525,241.519,222.513,241.519z"/>
</g>
<rect x="72.986" y="222.707" style="fill:#FFFFFF;" width="15.903" height="15.903"/>
<g>
	<path style="fill:#194F82;" d="M99.814,200.921H62.125c-6.012,0-10.925,4.848-10.925,10.925v37.689
		c0,6.012,4.848,10.925,10.925,10.925h37.689c6.012,0,10.925-4.848,10.925-10.925v-37.689
		C110.739,205.77,105.826,200.921,99.814,200.921z M88.954,238.61H73.05v-15.903h15.903V238.61z"/>
	<path style="fill:#194F82;" d="M188.703,315.087h-51.071c-6.012,0-10.925-4.848-10.925-10.925s4.848-10.925,10.925-10.925h51.071
		c6.012,0,10.925,4.848,10.925,10.925C199.564,310.238,194.715,315.087,188.703,315.087z"/>
</g>
<rect x="72.986" y="296.275" style="fill:#FFFFFF;" width="15.903" height="15.903"/>
<g>
	<path style="fill:#194F82;" d="M99.814,274.424H62.125c-6.012,0-10.925,4.848-10.925,10.925v37.689
		c0,6.012,4.848,10.925,10.925,10.925h37.689c6.012,0,10.925-4.849,10.925-10.925v-37.689
		C110.739,279.337,105.826,274.424,99.814,274.424z M88.954,312.178H73.05v-15.903h15.903V312.178z"/>
	<path style="fill:#194F82;" d="M309.204,225.745c-8.598,0-16.743,1.293-24.566,3.685V72.469c0-6.012-4.848-10.925-10.925-10.925
		h-66.198l-5.495-13.511c-1.681-4.073-5.624-6.788-10.149-6.788h-15.063v-6.723c0-19.006-15.451-34.457-34.457-34.457
		s-34.457,15.451-34.457,34.457v6.723H92.768c-4.396,0-8.404,2.715-10.149,6.788l-5.56,13.511H10.925
		C4.913,61.543,0,66.392,0,72.469v309.139c0,6.012,4.848,10.925,10.925,10.925h298.02c0.065,0,0.129,0,0.259,0
		c45.964,0,83.394-37.43,83.394-83.394S355.232,225.745,309.204,225.745z M129.616,34.521c0-6.982,5.689-12.671,12.671-12.671
		c6.982,0,12.671,5.689,12.671,12.671v6.723h-25.341V34.521L129.616,34.521z M100.137,63.03h84.364l10.667,26.053H89.535
		L100.137,63.03z M21.851,370.812V83.329h46.416L63.16,95.871c-3.038,6.788,2.521,14.998,10.149,14.998h138.085
		c10.02,0,13.123-11.055,9.568-16.356l-4.59-11.119h46.352v156.574c-22.303,14.998-37.042,40.404-37.042,69.301
		c0,24.436,10.602,46.287,27.345,61.608L21.851,370.812L21.851,370.812z M309.204,370.812c-34.004,0-61.608-27.669-61.608-61.608
		c0-34.004,27.669-61.608,61.608-61.608c34.004,0,61.608,27.669,61.608,61.608C370.812,343.143,343.143,370.812,309.204,370.812z"/>
</g>
<g>
	<path style="fill:#FFC10D;" d="M309.204,247.531c-34.004,0-61.608,27.669-61.608,61.608c0,34.004,27.669,61.608,61.608,61.608
		c34.004,0,61.608-27.669,61.608-61.608C370.812,275.2,343.143,247.531,309.204,247.531z"/>
	<polygon style="fill:#FFC10D;" points="100.137,63.03 89.535,89.083 195.168,89.083 184.501,63.03 	"/>
	<path style="fill:#FFC10D;" d="M142.287,21.85c-6.982,0-12.671,5.689-12.671,12.671v6.723h25.341v-6.723
		C155.022,27.539,149.333,21.85,142.287,21.85z"/>
</g>
<path style="fill:#194F82;" d="M351.547,278.691c-4.267-4.267-11.119-4.267-15.451,0l-37.818,37.883l-16.097-16.097
	c-4.267-4.267-11.119-4.267-15.451,0c-4.267,4.267-4.267,11.119,0,15.451l23.79,23.79c5.236,4.784,12.154,3.879,15.451,0
	l45.576-45.576C355.814,289.81,355.814,282.958,351.547,278.691z"/>
</svg>