<?xml version="1.0" encoding="iso-8859-1"?>
<!-- Uploaded to: SVG Repo, www.svgrepo.com, Generator: SVG Repo Mixer Tools -->
<svg height="800px" width="800px" version="1.1" id="Layer_1" xmlns="http://www.w3.org/2000/svg" xmlns:xlink="http://www.w3.org/1999/xlink" 
	 viewBox="0 0 512 512" xml:space="preserve">
<polygon style="fill:#F2F2F2;" points="255.999,501.801 120.37,366.172 202.003,366.172 202.003,10.199 309.995,10.199 
	309.995,366.172 391.628,366.172 "/>
<g>
	<path style="fill:#4D4D4D;" d="M255.999,512c-2.705,0-5.3-1.075-7.212-2.987L113.158,373.384c-2.917-2.917-3.789-7.304-2.21-11.115
		c1.579-3.81,5.297-6.296,9.423-6.296h71.434V10.199C191.805,4.567,196.371,0,202.005,0h107.991c5.633,0,10.199,4.567,10.199,10.199
		v345.773h71.434c4.125,0,7.844,2.486,9.423,6.296c1.579,3.811,0.706,8.198-2.21,11.115L263.213,509.013
		C261.299,510.925,258.704,512,255.999,512z M144.993,376.371l111.006,111.005l111.006-111.005h-57.009
		c-5.633,0-10.199-4.567-10.199-10.199V20.398h-87.593v345.773c0,5.632-4.566,10.199-10.199,10.199H144.993z"/>
	<path style="fill:#4D4D4D;" d="M277.417,159.347c-5.633,0-10.199-4.567-10.199-10.199V44.56c0-5.632,4.566-10.199,10.199-10.199
		c5.633,0,10.199,4.567,10.199,10.199v104.588C287.617,154.781,283.05,159.347,277.417,159.347z"/>
	<path style="fill:#4D4D4D;" d="M277.417,198.884c-5.633,0-10.199-4.567-10.199-10.199v-6.436c0-5.632,4.566-10.199,10.199-10.199
		c5.633,0,10.199,4.567,10.199,10.199v6.436C287.617,194.317,283.05,198.884,277.417,198.884z"/>
</g>
</svg>