<?xml version="1.0" encoding="iso-8859-1"?>
<!-- Uploaded to: SVG Repo, www.svgrepo.com, Generator: SVG Repo Mixer Tools -->
<svg height="800px" width="800px" version="1.1" id="Layer_1" xmlns="http://www.w3.org/2000/svg" xmlns:xlink="http://www.w3.org/1999/xlink" 
	 viewBox="0 0 512 512" xml:space="preserve">
<polygon style="fill:#FBB429;" points="426.408,501.801 85.592,501.801 85.592,10.199 362.61,10.199 426.408,73.997 "/>
<g>
	<path style="fill:#4D4D4D;" d="M433.62,66.784L369.822,2.987C367.91,1.075,365.315,0,362.61,0H85.592
		c-5.633,0-10.199,4.567-10.199,10.199v491.602c0,5.632,4.566,10.199,10.199,10.199h340.817c5.633,0,10.199-4.567,10.199-10.199
		V73.997C436.607,71.291,435.533,68.698,433.62,66.784z M406.21,68.223h-38.154V30.068L406.21,68.223z M95.791,491.602V20.398
		h251.866v58.024c0,5.632,4.566,10.199,10.199,10.199h58.353v402.98H95.791z"/>
	<path style="fill:#4D4D4D;" d="M121.235,376.239c-5.633,0-10.199,4.567-10.199,10.199v79.554c0,5.632,4.566,10.199,10.199,10.199
		c5.633,0,10.199-4.567,10.199-10.199v-79.554C131.434,380.806,126.868,376.239,121.235,376.239z"/>
	<path style="fill:#4D4D4D;" d="M121.235,337.482c-5.633,0-10.199,4.567-10.199,10.199v6.12c0,5.632,4.566,10.199,10.199,10.199
		c5.633,0,10.199-4.567,10.199-10.199v-6.12C131.434,342.049,126.868,337.482,121.235,337.482z"/>
</g>
</svg>