<?xml version="1.0" encoding="iso-8859-1"?>
<!-- Uploaded to: SVG Repo, www.svgrepo.com, Generator: SVG Repo Mixer Tools -->
<svg height="800px" width="800px" version="1.1" id="Layer_1" xmlns="http://www.w3.org/2000/svg" xmlns:xlink="http://www.w3.org/1999/xlink" 
	 viewBox="0 0 512 512" xml:space="preserve">
<polygon style="fill:#FBB429;" points="501.801,438.436 10.199,438.436 10.199,73.564 118.311,73.564 161.147,116.885 
	501.801,116.885 "/>
<g>
	<path style="fill:#4D4D4D;" d="M501.801,448.635H10.199C4.567,448.635,0,444.068,0,438.436V73.564
		c0-5.632,4.567-10.199,10.199-10.199h108.112c2.725,0,5.336,1.09,7.252,3.028l39.842,40.293h336.396
		c5.632,0,10.199,4.567,10.199,10.199v321.551C512,444.068,507.433,448.635,501.801,448.635z M20.398,428.237h471.203V127.084
		H161.147c-2.725,0-5.336-1.09-7.252-3.028l-39.842-40.293H20.398V428.237z"/>
	<path style="fill:#4D4D4D;" d="M199.904,414.217H45.896c-5.632,0-10.199-4.567-10.199-10.199c0-5.632,4.567-10.199,10.199-10.199
		h154.008c5.632,0,10.199,4.567,10.199,10.199C210.104,409.65,205.536,414.217,199.904,414.217z"/>
	<path style="fill:#4D4D4D;" d="M244.781,414.217h-10.199c-5.632,0-10.199-4.567-10.199-10.199c0-5.632,4.567-10.199,10.199-10.199
		h10.199c5.632,0,10.199,4.567,10.199,10.199C254.98,409.65,250.413,414.217,244.781,414.217z"/>
</g>
</svg>