<?xml version="1.0" encoding="iso-8859-1"?>
<!-- Uploaded to: SVG Repo, www.svgrepo.com, Generator: SVG Repo Mixer Tools -->
<svg version="1.1" id="Layer_1" xmlns="http://www.w3.org/2000/svg" xmlns:xlink="http://www.w3.org/1999/xlink" 
	 viewBox="0 0 512 512" xml:space="preserve">
<rect x="38.125" y="69.641" style="fill:#1FCFC1;" width="434.622" height="254.411"/>
<polygon style="fill:#847C7C;" points="501.801,411.764 10.198,411.764 38.131,324.05 472.755,324.05 "/>
<path style="fill:#F2F2F2;" d="M501.803,411.764H10.2l0,0c10.27,18.752,31.265,30.598,54.232,30.598h383.14
	c22.965,0,43.958-11.843,54.229-30.594L501.803,411.764z"/>
<g>
	<path style="fill:#4D4D4D;" d="M213.548,92.302H72.77c-5.633,0-10.199,4.567-10.199,10.199c0,5.632,4.566,10.199,10.199,10.199
		h140.778c5.633,0,10.199-4.567,10.199-10.199C223.747,96.869,219.181,92.302,213.548,92.302z"/>
	<path style="fill:#4D4D4D;" d="M257.121,92.302h-10.055c-5.633,0-10.199,4.567-10.199,10.199c0,5.632,4.566,10.199,10.199,10.199
		h10.055c5.632,0,10.199-4.567,10.199-10.199C267.321,96.869,262.754,92.302,257.121,92.302z"/>
	<path style="fill:#4D4D4D;" d="M511.483,408.557L482.951,322.4V69.639c0-5.632-4.567-10.199-10.199-10.199H38.129
		c-5.633,0-10.199,4.567-10.199,10.199v252.834L0.479,408.669c-0.849,2.665-0.554,5.538,0.764,7.963
		c0.005,0.011,0.004,0.021,0.01,0.033c0.013,0.023,0.027,0.046,0.04,0.068c0.012,0.022,0.025,0.044,0.038,0.066
		c12.151,22.062,36.313,35.762,63.1,35.762h383.14c26.816,0,51.005-13.73,63.143-35.836c0.004-0.007,0.005-0.014,0.009-0.021
		C512.094,414.23,512.384,411.277,511.483,408.557z M468.089,342.408h-425.1l2.598-8.158h419.799L468.089,342.408z M36.502,362.781
		c0.17,0.008,0.339,0.025,0.511,0.025h437.832l3.039,9.179H33.569L36.502,362.781z M484.64,392.384l3.039,9.179H24.149l2.923-9.179
		H484.64z M48.329,79.839h414.224V313.85H48.329V79.839z M447.571,432.163H64.431c-11.729,0-22.96-3.747-31.83-10.199h446.801
		C470.531,428.415,459.3,432.163,447.571,432.163z"/>
</g>
</svg>