<?xml version="1.0" encoding="iso-8859-1"?>
<!-- Uploaded to: SVG Repo, www.svgrepo.com, Generator: SVG Repo Mixer Tools -->
<svg version="1.1" id="Layer_1" xmlns="http://www.w3.org/2000/svg" xmlns:xlink="http://www.w3.org/1999/xlink" 
	 viewBox="0 0 511.999 511.999" xml:space="preserve">
<path style="fill:#FBB429;" d="M123.397,417.581l32.9,26.4c32.861,26.369,73.734,40.741,115.867,40.741H399.21
	c18.292,0,33.754-14.342,34.255-32.627c0.52-18.972-14.703-34.513-33.557-34.513h36.74c21.375,0,39.276-17.494,38.868-38.865
	c-0.396-20.712-17.309-37.379-38.114-37.379h13.273c22.333,0,41.035-18.277,40.608-40.605
	c-0.414-21.639-18.084-39.052-39.822-39.052h8.564c22.971,0,42.207-18.799,41.769-41.766c-0.425-22.257-18.601-40.168-40.959-40.168
	H326.162l34.594-93.846c8.32-22.57-3.232-47.61-25.802-55.93l0,0c-22.57-8.319-47.61,3.232-55.929,25.802l-10.152,27.542
	c-21.359,57.943-76.568,96.432-138.322,96.432h-7.153L123.397,417.581L123.397,417.581z"/>
<rect x="10.199" y="179.751" style="fill:#847C7C;" width="113.201" height="284.497"/>
<circle style="fill:#FBB429;" cx="75.066" cy="413.027" r="17.069"/>
<g>
	<path style="fill:#4D4D4D;" d="M10.199,169.548C4.567,169.548,0,174.114,0,179.747v284.491c0,5.633,4.567,10.199,10.199,10.199
		h113.198c5.632,0,10.199-4.566,10.199-10.199v-25.395l16.317,13.093c34.544,27.719,77.96,42.986,122.25,42.986h127.045
		c23.867,0,43.809-19.087,44.451-42.547c0.242-8.84-2.109-17.319-6.725-24.594c13.047-0.078,25.774-5.477,34.961-14.841
		c9.156-9.332,14.063-21.555,13.817-34.418c-0.236-12.321-5.178-23.557-13.078-31.993c5.375-2.564,10.319-6.058,14.54-10.361
		c9.48-9.662,14.559-22.315,14.305-35.631c-0.266-13.908-6.329-26.484-15.833-35.42c4.28-2.407,8.237-5.416,11.715-8.961
		c9.694-9.881,14.891-22.822,14.63-36.439c-0.53-27.665-23.479-50.171-51.156-50.171H340.792l29.534-80.12
		c4.966-13.471,4.389-28.071-1.626-41.109c-6.014-13.038-16.747-22.952-30.218-27.919c-27.81-10.251-58.777,4.033-69.028,31.845
		l-10.152,27.541c-19.791,53.689-71.532,89.761-128.752,89.761H10.199V169.548z M113.198,454.039H20.398V189.946h92.799V454.039z
		 M460.025,251.481h-8.563h-81.664c-5.632,0-10.199,4.566-10.199,10.199s4.567,10.199,10.199,10.199h81.664
		c16.028,0,29.318,13.031,29.625,29.047c0.149,7.793-2.86,15.236-8.473,20.955c-5.771,5.883-13.768,9.257-21.939,9.257h-13.273
		h-60.777c-5.632,0-10.199,4.566-10.199,10.199s4.567,10.199,10.199,10.199h60.777c15.105,0,27.629,12.281,27.917,27.375
		c0.141,7.34-2.696,14.352-7.983,19.743c-5.442,5.546-12.983,8.729-20.687,8.729h-36.74h-35.802
		c-5.632,0-10.199,4.566-10.199,10.199s4.567,10.199,10.199,10.199h35.802c6.363,0,12.314,2.512,16.752,7.075
		c4.438,4.56,6.784,10.583,6.609,16.959c-0.344,12.521-11.137,22.707-24.061,22.707H272.164c-39.666,0-78.548-13.671-109.483-38.496
		l-29.084-23.338V189.917c31.301-0.595,61.353-10.346,87.096-28.292c26.575-18.528,46.544-44.388,57.749-74.785L288.594,59.3
		c6.361-17.256,25.577-26.12,42.833-19.76c8.359,3.081,15.019,9.234,18.751,17.324c3.732,8.09,4.091,17.149,1.009,25.509
		l-34.594,93.846c-1.154,3.129-0.704,6.624,1.204,9.36c1.907,2.736,5.032,4.366,8.366,4.366h134.672
		c16.643,0,30.444,13.531,30.762,30.163c0.154,8.094-2.969,15.823-8.796,21.763C476.81,247.979,468.508,251.481,460.025,251.481z"/>
	<path style="fill:#4D4D4D;" d="M337.664,251.481h-3.13c-5.632,0-10.199,4.566-10.199,10.199s4.567,10.199,10.199,10.199h3.13
		c5.632,0,10.199-4.566,10.199-10.199S343.297,251.481,337.664,251.481z"/>
	<path style="fill:#4D4D4D;" d="M75.064,385.761c-15.036,0-27.269,12.233-27.269,27.269c0,15.037,12.233,27.269,27.269,27.269
		s27.268-12.233,27.268-27.269S90.1,385.761,75.064,385.761z M75.064,419.901c-3.789,0-6.87-3.082-6.87-6.87s3.081-6.87,6.87-6.87
		c3.788,0,6.869,3.081,6.869,6.87S78.852,419.901,75.064,419.901z"/>
</g>
</svg>