<?xml version="1.0" encoding="iso-8859-1"?>
<!-- Uploaded to: SVG Repo, www.svgrepo.com, Generator: SVG Repo Mixer Tools -->
<svg version="1.1" id="Layer_1" xmlns="http://www.w3.org/2000/svg" xmlns:xlink="http://www.w3.org/1999/xlink" 
	 viewBox="0 0 512 512" xml:space="preserve">
<rect x="111.906" y="274.012" style="fill:#847C7C;" width="288.178" height="227.789"/>
<g>
	<path style="fill:#F2F2F2;" d="M297.32,368.305c0-22.821-18.499-41.32-41.32-41.32s-41.32,18.499-41.32,41.32
		c0,16.777,10.004,31.208,24.368,37.68v48.138h33.903v-48.138C287.316,399.514,297.32,385.082,297.32,368.305z"/>
	<path style="fill:#F2F2F2;" d="M184.533,274.011V124.624c0-39.47,31.997-71.467,71.467-71.467l0,0
		c39.47,0,71.467,31.997,71.467,71.467v149.388h41.161V122.827c0-62.203-50.425-112.628-112.628-112.628l0,0
		c-62.202,0-112.628,50.425-112.628,112.628v151.185h41.161V274.011z"/>
</g>
<g>
	<path style="fill:#4D4D4D;" d="M400.09,263.813h-21.263V122.827C378.827,55.099,323.727,0,256,0S133.173,55.099,133.173,122.827
		v140.986H111.91c-5.633,0-10.199,4.566-10.199,10.199v227.789c0,5.633,4.566,10.199,10.199,10.199H400.09
		c5.633,0,10.199-4.566,10.199-10.199V274.012C410.289,268.379,405.723,263.813,400.09,263.813z M153.571,122.827
		c0-56.479,45.949-102.429,102.429-102.429s102.429,45.949,102.429,102.429v140.986h-20.763V124.624
		c0-45.031-36.635-81.665-81.666-81.665s-81.666,36.635-81.666,81.665v139.189h-20.763L153.571,122.827L153.571,122.827z
		 M194.732,263.813V124.624c0-33.783,27.485-61.267,61.268-61.267s61.268,27.484,61.268,61.267v139.189H194.732z M389.891,284.211
		v207.391H122.109V284.211H389.891z"/>
	<path style="fill:#4D4D4D;" d="M256,316.786c-28.408,0-51.519,23.111-51.519,51.519c0,17.933,9.376,34.465,24.368,43.777v42.041
		c0,5.633,4.566,10.199,10.199,10.199h33.903c5.633,0,10.199-4.566,10.199-10.199v-42.041c14.992-9.313,24.368-25.844,24.368-43.777
		C307.519,339.898,284.408,316.786,256,316.786z M268.761,396.687c-3.657,1.648-6.009,5.287-6.009,9.299v37.939h-13.505v-37.939
		c0-4.011-2.352-7.65-6.009-9.299c-11.153-5.025-18.359-16.166-18.359-28.381c0-17.16,13.961-31.121,31.121-31.121
		c17.16,0,31.121,13.961,31.121,31.121C287.121,380.521,279.914,391.662,268.761,396.687z"/>
	<path style="fill:#4D4D4D;" d="M145.813,342.214c-5.633,0-10.199,4.566-10.199,10.199v116.543c0,5.633,4.566,10.199,10.199,10.199
		c5.633,0,10.199-4.566,10.199-10.199V352.413C156.012,346.78,151.446,342.214,145.813,342.214z"/>
	<path style="fill:#4D4D4D;" d="M145.813,305.132c-5.633,0-10.199,4.566-10.199,10.199v5.297c0,5.633,4.566,10.199,10.199,10.199
		c5.633,0,10.199-4.566,10.199-10.199v-5.297C156.012,309.698,151.446,305.132,145.813,305.132z"/>
</g>
</svg>