<?xml version="1.0" encoding="iso-8859-1"?>
<!-- Uploaded to: SVG Repo, www.svgrepo.com, Generator: SVG Repo Mixer Tools -->
<svg height="800px" width="800px" version="1.1" id="Layer_1" xmlns="http://www.w3.org/2000/svg" xmlns:xlink="http://www.w3.org/1999/xlink" 
	 viewBox="0 0 512.001 512.001" xml:space="preserve">
<path style="fill:#1FCFC1;" d="M422.149,291.209c-6.526,86.308-79.179,154.444-167.288,153.739
	c-89.914-0.719-163.534-73.676-165.032-163.581c-1.522-91.31,70.91-166.377,161.218-169.147v36.892
	c0,11.747,13.853,18.008,22.67,10.246l71.119-62.61c6.174-5.435,6.174-15.057,0-20.492l-71.119-62.609
	c-8.817-7.762-22.67-1.501-22.67,10.246v31.453c-57.7,1.302-111.752,24.38-152.699,65.328
	c-42.168,42.169-65.391,98.233-65.391,157.868S56.18,394.241,98.348,436.411c42.168,42.168,98.232,65.391,157.867,65.391
	s115.7-23.223,157.867-65.391c38.75-38.751,61.501-89.235,64.935-143.441c0.496-7.829-5.787-14.427-13.631-14.427h-29.632
	C428.6,278.543,422.688,284.073,422.149,291.209z"/>
<path style="fill:#4D4D4D;" d="M256.216,512.001c-62.359,0-120.985-24.283-165.08-68.377
	c-44.094-44.095-68.378-102.722-68.378-165.08s24.284-120.985,68.378-165.081c40.33-40.33,93.169-64.212,149.712-67.876V23.893
	c0-9.495,5.375-17.824,14.028-21.734c8.652-3.908,18.455-2.443,25.582,3.833l71.119,62.611c5.141,4.526,8.09,11.049,8.091,17.9
	c0,6.85-2.948,13.374-8.09,17.902l-71.12,62.61c-7.127,6.273-16.928,7.744-25.582,3.833c-8.653-3.91-14.028-12.239-14.028-21.734
	v-26.02c-79.888,7.879-142.179,76.689-140.823,158.104c1.4,83.997,70.895,152.88,154.917,153.552
	c81.921,0.676,150.869-62.732,157.037-144.309c0.936-12.39,11.381-22.096,23.777-22.096h29.632c6.573,0,12.923,2.749,17.422,7.542
	c4.471,4.764,6.8,11.226,6.388,17.729c-3.581,56.528-27.696,109.802-67.902,150.009
	C377.202,487.716,318.575,512.001,256.216,512.001z M264.762,20.415c-0.605,0-1.126,0.171-1.485,0.334
	c-0.759,0.343-2.031,1.208-2.031,3.145v31.454c0,5.543-4.427,10.071-9.968,10.196c-55.007,1.241-106.757,23.382-145.717,62.344
	c-40.243,40.242-62.404,93.746-62.404,150.656S65.319,388.958,105.561,429.2s93.745,62.404,150.655,62.404
	s110.415-22.161,150.655-62.404c36.694-36.694,58.702-85.304,61.969-136.874c0.074-1.175-0.45-1.997-0.904-2.48
	c-0.387-0.412-1.232-1.104-2.55-1.104h-29.632c-1.819,0-3.297,1.391-3.437,3.236l0,0c-6.939,91.765-84.162,163.174-176.118,163.174
	c-0.473,0-0.947-0.002-1.423-0.005c-46.164-0.369-89.765-18.588-122.77-51.301C99.002,371.132,80.4,327.695,79.631,281.538
	c-0.779-46.765,16.622-91.155,49-124.998c32.27-33.729,75.634-53.089,122.103-54.513c2.78-0.078,5.433,0.953,7.414,2.872
	c1.981,1.921,3.098,4.563,3.098,7.322v36.892c0,1.938,1.272,2.803,2.031,3.145c0.757,0.344,2.248,0.726,3.702-0.555l71.119-62.61
	c1.019-0.897,1.171-2.008,1.171-2.592c0-0.581-0.152-1.693-1.171-2.589l-71.12-62.611C266.211,20.628,265.435,20.415,264.762,20.415
	z"/>
</svg>