<?xml version="1.0" encoding="iso-8859-1"?>
<!-- Uploaded to: SVG Repo, www.svgrepo.com, Generator: SVG Repo Mixer Tools -->
<svg height="800px" width="800px" version="1.1" id="Layer_1" xmlns="http://www.w3.org/2000/svg" xmlns:xlink="http://www.w3.org/1999/xlink" 
	 viewBox="0 0 508 508" xml:space="preserve">
<path style="fill:#F4EFEF;" d="M326.4,163.8h147.2c17.2,0,28.4-18.8,28.4-34V82.2c0-16.4-12-26-28.4-26H38c-15.6,0-32,8.8-32,26
	v47.6c0,16.4,15.6,34,32,34h143.6c19.6-20,44.8-26,72-26S306.4,143.8,326.4,163.8z"/>
<path style="fill:#CDEEF9;" d="M334,91.8h-8h-32H118c-7.6,0-16,2-16,9.6v8.4c0,7.6,8,18,16,18h216.4c7.6,0,12-10,12-18v-8.4
	C346,93.8,342,91.8,334,91.8z"/>
<path style="fill:#E8E3E3;" d="M63.2,88.6c-1.6-0.4-3.2-0.8-5.2-0.8c-9.6,0-17.6,8-17.6,17.6S48.4,123,58,123s17.6-8,17.6-17.6
	c0-1.6-0.4-3.2-0.8-5.2C73.2,93,63.2,89,63.2,88.6z"/>
<g>
	<path style="fill:#61C2AB;" d="M462,115.8c2.8,0,5.6-1.2,7.2-3.2c2-2,2.8-4.4,2.8-6.8c-0.4-9.2-10-10-10.4-10c-5.2,0-10,4.4-10,10
		C452,111.4,456.4,115.8,462,115.8z"/>
	<path style="fill:#61C2AB;" d="M422,115.8c2.8,0,5.6-1.2,7.6-3.2c1.6-2,2.8-4.4,2.4-6.8c-0.4-8.8-6-10.4-9.2-10.4
		c-0.4,0-0.8,0-0.8,0c-6,0-10.4,4.4-10.4,10C412,111.4,416.4,115.8,422,115.8z"/>
	<path style="fill:#61C2AB;" d="M382,115.8c2.8,0,5.6-1.2,7.6-3.2c1.6-2,2.8-4.4,2.4-6.8c-0.8-9.6-8.4-10.4-10-10.4
		c-5.6,0-10.4,4.4-10.4,10C372,111.4,376.4,115.8,382,115.8z"/>
</g>
<g>
	<path style="fill:#F4EFEF;" d="M142,275.8h-24c-10,0-20-12-20-22v-8.4c0-10,10.4-13.6,20-13.6h24c2-12,5.6-24,10.8-32H38
		c-15.6,0-32,8.8-32,26v47.6c0,16.8,15.6,34.4,32,34.4h116.8c-5.6-12-10-20.8-12.4-32C142.4,275.8,142.4,275.8,142,275.8z"/>
	<path style="fill:#F4EFEF;" d="M353.2,307.8h120.4c17.2,0,28.4-18.8,28.4-34.4v-47.6c0-16-12-26-28.4-26h-118
		c8,12,12.8,33.2,12.8,52C368,272.2,362.4,287.8,353.2,307.8z"/>
</g>
<path style="fill:#CDEEF9;" d="M102,245.4v8.4c0,7.6,8,18,16,18h24c-1.2-8-1.6-13.2-1.6-20c0-5.6,0.4-12,1.2-16H118
	C110,235.8,102,237.8,102,245.4z"/>
<path style="fill:#E8E3E3;" d="M63.2,232.6c-1.6-0.4-3.6-0.8-5.2-0.8c-9.6,0-17.6,8-17.6,17.6S48.4,267,58,267s17.6-8,17.6-17.6
	c0-2-0.4-3.6-0.8-5.2C72,236.6,63.2,232.6,63.2,232.6z"/>
<g>
	<path style="fill:#61C2AB;" d="M462,259.8c3.6,0,7.2-2,9.2-4.4c0.8-1.2,1.6-2.8,1.2-5.2c-2.8-10-8-10.8-9.6-10.8h-0.4
		c-5.6,0-10,4.4-10,10C452,255.4,456.4,259.8,462,259.8z"/>
	<path style="fill:#61C2AB;" d="M422,259.8c3.6,0,7.2-1.6,9.2-4.4c0.8-1.2,1.6-3.2,1.2-5.2c-2.4-8-9.2-10.4-10.4-10.8
		c-5.6,0-10,4.8-10,10C412,255.4,416.4,259.8,422,259.8z"/>
	<path style="fill:#61C2AB;" d="M382,259.8c5.6,0,9.6-4.4,10-10.4c0.4-8-10.4-10-10.4-10c-5.2,0-9.6,4.4-9.6,10
		S376.4,259.8,382,259.8z"/>
</g>
<path style="fill:#F4EFEF;" d="M473.6,343.8H322h-1.2c-18.8,12-42,22-66.8,22s-48-10-66.8-22H186H38c-15.6,0-32,8.4-32,25.6V417
	c0,16.8,15.6,34.4,32,34.4h435.2c17.2,0,28.4-18.8,28.4-34.4v-47.6C502,353,490.4,343.8,473.6,343.8z"/>
<path style="fill:#CDEEF9;" d="M102,389.4v8.4c0,7.6,8.4,18.4,16,18.4h216.4c7.6,0,12-10.4,12-18.4v-8.4c0-7.6-4-9.6-12-9.6h-8h-32
	h-176C110,379.8,102,381.8,102,389.4z"/>
<path style="fill:#E8E3E3;" d="M74.8,387.8c-0.8-5.6-8.8-10-11.6-11.6c-1.6-0.4-3.2-0.8-5.2-0.8c-9.6,0-17.6,8-17.6,17.6
	s8,17.6,17.6,17.6s17.6-8,17.6-17.6c0-1.2-0.4-2.4-0.4-4C74.8,389,74.8,388.6,74.8,387.8z"/>
<g>
	<path style="fill:#61C2AB;" d="M462,383.4c-5.6,0-10,4.4-10,10s4.4,10,10,10c2.8,0,5.6-1.2,7.2-3.2c2-2,2.8-4.4,2.8-6.8
		C472,383.4,462.4,383.4,462,383.4z"/>
	<path style="fill:#61C2AB;" d="M422.8,383.4c-0.4,0-0.4,0-0.4,0c-6,0-10.4,4.4-10.4,10s4.4,10,10,10c2.8,0,6-1.2,8-3.6
		c1.6-2,2.4-4,2.4-6.4C431.2,384.2,425.2,383.4,422.8,383.4z"/>
	<path style="fill:#61C2AB;" d="M381.6,383.4c-5.2,0-10,4.4-10,10s4.4,10,10,10c3.2,0,6.4-1.6,8.4-4c1.2-1.2,2.4-3.2,1.6-6
		C390.4,384.2,382,383.4,381.6,383.4z"/>
</g>
<path style="fill:#DF5C4E;" d="M350.8,197.8c-0.8-1.2-1.2-2.4-2-3.6c-6.4-10.8-14.4-20.4-24-28.4c-1.2-1.2-2.8-2.4-4-3.2
	c-18.4-14-41.6-22.4-66.4-22.4c-25.2,0-48,8.4-66.4,22.4c-1.6,1.2-2.8,2-4,3.2c-9.6,8-17.6,17.6-24,28.4c-0.8,1.2-1.2,2.4-2,3.6
	c-8.4,15.6-13.2,33.2-13.2,52c0,19.2,5.2,37.6,14,53.2s21.2,28.8,36,38.8c17.2,11.2,37.6,18,60,18s42.8-6.4,60-18
	c14.8-9.6,27.6-23.2,36-38.8c8.8-16,14-34,14-53.2C364,231,359.2,213.4,350.8,197.8z"/>
<path d="M473.6,169.8H330c-2.4,0-4-1.6-4-4s1.6-4,4-4h143.6c15.2,0,26.4-16.8,26.4-32V82.2c0-14.8-10.4-24-26.4-24H38
	c-14.8,0-30,8.4-30,24v47.6c0,16,15.2,32,30,32h140c2.4,0,4,1.6,4,4s-1.6,4-4,4H38c-19.2,0-38-20-38-40V82.2c0-20.8,19.6-32,38-32
	h435.2c20.8,0,34.4,12.8,34.4,32v47.6C508,148.6,494,169.8,473.6,169.8z"/>
<path d="M334,133.8H118c-10.4,0-18-8-18-20v-12.4c0-10.4,6-15.6,18-15.6h176c2.4,0,4,1.6,4,4s-1.6,4-4,4H118c-8.4,0-10,2.8-10,7.6
	v12.4c0,5.6,2.4,12,10,12h216.4c7.2,0,10-6.4,10-12v-12.4c0-5.2-1.6-7.6-10-7.6h-8c-2.4,0-4-1.6-4-4s1.6-4,4-4h8
	c12,0,18,5.2,18,15.6v12.4C352,125.8,344.8,133.8,334,133.8z"/>
<path d="M57.6,129.4c-13.2,0-23.6-10.8-23.6-23.6c0-13.2,10.8-23.6,23.6-23.6c2.4,0,4.8,0.4,7.2,1.2c2,0.8,3.2,2.8,2.4,5.2
	c-0.8,2-2.8,3.2-5.2,2.4c-1.6-0.4-3.2-0.8-4.8-0.8c-8.8,0-15.6,7.2-15.6,15.6c0,8.8,7.2,15.6,15.6,15.6c8.8,0,15.6-7.2,15.6-15.6
	c0-1.6-0.4-3.2-0.8-4.8c-0.8-2,0.4-4.4,2.8-4.8c2-0.8,4.4,0.4,4.8,2.8c0.8,2.4,1.2,4.4,1.2,6.8C81.6,119,70.8,129.4,57.6,129.4z"/>
<path d="M462,121.8c-8.8,0-16-7.2-16-16s7.2-16,16-16c2.4,0,4,1.6,4,4s-1.6,4-4,4c-4.4,0-8,3.6-8,8s3.6,8,8,8s8-3.6,8-8
	c0-2.4,1.6-4,4-4s4,1.6,4,4C478,114.6,470.8,121.8,462,121.8z"/>
<path d="M422,121.8c-8.8,0-16-7.2-16-16s7.2-16,16-16c2.4,0,4,1.6,4,4s-1.6,4-4,4c-4.4,0-8,3.6-8,8s3.6,8,8,8s8-3.6,8-8
	c0-2.4,1.6-4,4-4s4,1.6,4,4C438,114.6,430.8,121.8,422,121.8z"/>
<path d="M382,121.8c-8.8,0-16-7.2-16-16s7.2-16,16-16c2.4,0,4,1.6,4,4s-1.6,4-4,4c-4.4,0-8,3.6-8,8s3.6,8,8,8s8-3.6,8-8
	c0-2.4,1.6-4,4-4s4,1.6,4,4C398,114.6,390.8,121.8,382,121.8z"/>
<path d="M158,313.8H38c-19.2,0-38-20-38-40.4v-47.6c0-20.8,19.6-32,38-32h116c2.4,0,4,1.6,4,4s-1.6,4-4,4H38c-14.8,0-30,8.4-30,24
	v47.6c0,16,15.2,32.4,30,32.4h120c2.4,0,4,1.6,4,4S160.4,313.8,158,313.8z"/>
<path d="M473.6,313.8H354c-2.4,0-4-1.6-4-4s1.6-4,4-4h119.6c15.2,0,26.4-17.2,26.4-32.4v-47.6c0-14.4-10.4-24-26.4-24H354
	c-2.4,0-4-1.6-4-4s1.6-4,4-4h119.6c20.8,0,34.4,12.8,34.4,32v47.6C508,292.6,494,313.8,473.6,313.8z"/>
<path d="M142,277.8h-24c-10.4,0-18-8.4-18-20v-12.4c0-10.4,6-15.6,18-15.6h24c2.4,0,4,1.6,4,4s-1.6,4-4,4h-24c-8.4,0-10,2.4-10,7.6
	v12.4c0,5.6,2.4,12,10,12h24c2.4,0,4,1.6,4,4S144.4,277.8,142,277.8z"/>
<path d="M57.6,273.4c-13.2,0-23.6-10.8-23.6-23.6c0-13.2,10.8-23.6,23.6-23.6c2.4,0,4.8,0.4,7.2,1.2c2,0.8,3.2,2.8,2.4,5.2
	c-0.8,2-2.8,3.2-5.2,2.4c-1.6-0.4-3.2-0.8-4.8-0.8c-8.8,0-15.6,7.2-15.6,15.6c0,8.8,7.2,15.6,15.6,15.6c8.8,0,15.6-7.2,15.6-15.6
	c0-1.6-0.4-3.2-0.8-4.8c-0.8-2,0.4-4.4,2.8-4.8c2-0.8,4.4,0.4,4.8,2.8c0.8,2.4,1.2,4.4,1.2,6.8C81.6,262.6,70.8,273.4,57.6,273.4z"
	/>
<path d="M462,265.8c-8.8,0-16-7.2-16-16s7.2-16,16-16c2.4,0,4,1.6,4,4s-1.6,4-4,4c-4.4,0-8,3.6-8,8s3.6,8,8,8s8-3.6,8-8
	c0-2.4,1.6-4,4-4s4,1.6,4,4C478,258.6,470.8,265.8,462,265.8z"/>
<path d="M422,265.8c-8.8,0-16-7.2-16-16s7.2-16,16-16c2.4,0,4,1.6,4,4s-1.6,4-4,4c-4.4,0-8,3.6-8,8s3.6,8,8,8s8-3.6,8-8
	c0-2.4,1.6-4,4-4s4,1.6,4,4C438,258.6,430.8,265.8,422,265.8z"/>
<path d="M382,265.8c-8.8,0-16-7.2-16-16s7.2-16,16-16c2.4,0,4,1.6,4,4s-1.6,4-4,4c-4.4,0-8,3.6-8,8s3.6,8,8,8s8-3.6,8-8
	c0-2.4,1.6-4,4-4s4,1.6,4,4C398,258.6,390.8,265.8,382,265.8z"/>
<path d="M473.6,457.8H38c-19.2,0-38-20-38-40.4v-47.6c0-20.8,19.2-31.6,38-31.6h148c2.4,0,4,1.6,4,4s-1.6,4-4,4H38
	c-14.8,0-30,8-30,23.6v47.6c0,16,15.2,32.4,30,32.4h435.2c15.2,0,26.4-17.2,26.4-32.4v-47.6c0-14.8-10-23.6-26.4-23.6H322
	c-2.4,0-4-1.6-4-4s1.6-4,4-4h151.6c20.8,0,34.4,12.8,34.4,31.6v47.6C508,436.6,494,457.8,473.6,457.8z"/>
<path d="M334,421.8H118c-10.4,0-18-8.4-18-20.4V389c0-15.2,13.6-15.2,18-15.2h176c2.4,0,4,1.6,4,4s-1.6,4-4,4H118
	c-8.4,0-10,2.4-10,7.2v12.4c0,6,3.2,12.4,10,12.4h216.4c6.8,0,10-6,10-12.4V389c0-5.2-1.6-7.2-10-7.2h-8c-2.4,0-4-1.6-4-4s1.6-4,4-4
	h8c4.4,0,18,0,18,15.2v12.4C352,413.4,344.4,421.8,334,421.8z"/>
<path d="M57.6,417C44.4,417,34,406.2,34,393.4s10.8-23.6,23.6-23.6c2.4,0,4.8,0.4,7.2,1.2c2,0.8,3.2,2.8,2.4,5.2
	c-0.8,2-2.8,3.2-5.2,2.4c-1.6-0.4-3.2-0.8-4.8-0.8c-8.8,0-15.6,7.2-15.6,15.6S48.8,409,57.2,409c8.8,0,15.6-7.2,15.6-15.6
	c0-1.6-0.4-3.2-0.8-4.8c-0.8-2,0.4-4.4,2.8-5.2c2-0.8,4.4,0.4,4.8,2.8c0.8,2.4,1.2,4.4,1.2,6.8C81.6,406.6,70.8,417,57.6,417z"/>
<path d="M462,409.4c-8.8,0-16-7.2-16-16s7.2-16,16-16c2.4,0,4,1.6,4,4s-1.6,4-4,4c-4.4,0-8,3.6-8,8s3.6,8,8,8s8-3.6,8-8
	c0-2.4,1.6-4,4-4s4,1.6,4,4C478,402.2,470.8,409.4,462,409.4z"/>
<path d="M422,409.4c-8.8,0-16-7.2-16-16s7.2-16,16-16c2.4,0,4,1.6,4,4s-1.6,4-4,4c-4.4,0-8,3.6-8,8s3.6,8,8,8s8-3.6,8-8
	c0-2.4,1.6-4,4-4s4,1.6,4,4C438,402.2,430.8,409.4,422,409.4z"/>
<path d="M382,409.4c-8.8,0-16-7.2-16-16s7.2-16,16-16c2.4,0,4,1.6,4,4s-1.6,4-4,4c-4.4,0-8,3.6-8,8s3.6,8,8,8s8-3.6,8-8
	c0-2.4,1.6-4,4-4s4,1.6,4,4C398,402.2,390.8,409.4,382,409.4z"/>
<path d="M254,365.8c-64,0-116-52-116-116s52-116,116-116s116,52,116,116S318,365.8,254,365.8z M254,141.8c-59.6,0-108,48.4-108,108
	s48.4,108,108,108s108-48.4,108-108S313.6,141.8,254,141.8z"/>
<path d="M294,295.8c-1.2,0-2-0.4-2.8-1.2L214,217.4c-1.6-1.6-1.6-4,0-5.6s4-1.6,5.6,0l77.2,77.2c1.6,1.6,1.6,4,0,5.6
	C296,295.4,295.2,295.8,294,295.8z"/>
<path d="M216.8,295.8c-1.2,0-2-0.4-2.8-1.2c-1.6-1.6-1.6-4,0-5.6l77.2-77.2c1.6-1.6,4-1.6,5.6,0s1.6,4,0,5.6l-77.2,77.2
	C219.2,295.4,218,295.8,216.8,295.8z"/>
</svg>