<?xml version="1.0" encoding="iso-8859-1"?>
<!-- Uploaded to: SVG Repo, www.svgrepo.com, Generator: SVG Repo Mixer Tools -->
<svg height="800px" width="800px" version="1.1" id="Layer_1" xmlns="http://www.w3.org/2000/svg" xmlns:xlink="http://www.w3.org/1999/xlink" 
	 viewBox="0 0 127 127" xml:space="preserve">
<path style="fill:#F4EFEF;" d="M35.4,34.95h2.9c1.3,0,3.1-0.2,3.1,2.1v3.3c4.2-3.9,9.2-6.3,14.5-7.3h14.9c5.5,1,10.6,4,14.6,8h32.8
	c4.3,0,7.1-4.7,7.1-8.6v-11.9c0-4.1-2.9-6.4-7.1-6.4H9.5c-3.9,0-8,2.2-8,6.4v11.9c0,4.2,3.9,8.6,8,8.6h22v-3.9
	C31.5,35.35,32.9,34.95,35.4,34.95z"/>
<path style="fill:#CDEEF9;" d="M83.5,22.95h-2h-8h-44c-2,0-4,0.5-4,2.4v2.1c0,1.9,2.1,4.6,4,4.6h54.1c1.9,0,3-2.6,3-4.6v-2.1
	C86.5,23.45,85.5,22.95,83.5,22.95z"/>
<path style="fill:#E8E3E3;" d="M15.8,22.15c-0.4-0.1-0.9-0.2-1.3-0.2c-2.4,0-4.4,2-4.4,4.4s2,4.4,4.4,4.4s4.4-2,4.4-4.4
	c0-0.5-0.1-0.9-0.2-1.3C18.2,23.05,15.8,22.15,15.8,22.15z"/>
<g>
	<path style="fill:#61C2AB;" d="M115.5,28.85c0.8,0,1.6-0.4,2-0.9c0.3-0.3,0.6-0.8,0.5-1.5c-0.3-2.4-2-2.6-2.5-2.6
		c-1.5,0-2.6,1.1-2.6,2.5C113,27.75,114.1,28.85,115.5,28.85z"/>
	<path style="fill:#61C2AB;" d="M105.5,28.85c0.8,0,1.6-0.4,2.1-1c0.3-0.3,0.5-0.8,0.4-1.5c-0.4-2.4-2-2.6-2.5-2.6
		c-1.5,0-2.6,1.1-2.6,2.5C103,27.75,104.1,28.85,105.5,28.85z"/>
	<path style="fill:#61C2AB;" d="M95.5,28.85c0.8,0,1.5-0.3,2-0.9c0.4-0.5,0.6-1,0.5-1.6c-0.3-2.4-2.5-2.6-2.6-2.6
		c-1.4,0-2.5,1.1-2.5,2.5C93,27.75,94.1,28.85,95.5,28.85z"/>
</g>
<g>
	<path style="fill:#F4EFEF;" d="M33.7,73.75c-0.6-1.7-0.2-3.3,0.9-4.6c0.1-0.1,0.2-0.2,0.3-0.2h-0.3h-5.1c-2.5,0-5-3-5-5.5v-2.1
		c0-2.5,2.6-3.4,5-3.4h3.7c-0.1-1-0.3-0.5-0.4-0.6c-0.6-0.6-1.3-2-1.3-3v-4.4h-22c-3.9,0-8,2.1-8,6.4v11.9c0,4.2,3.9,8.7,8,8.7h25.4
		C34.5,75.95,34.1,74.75,33.7,73.75z"/>
	<path style="fill:#F4EFEF;" d="M118.4,49.95H92.1c0.5,1,1,1.9,1.4,3c0.6,1.8,0.2,3.5-1,4.8c-0.5,0.6-1.2,1-2,1.3
		c-0.5,0.2-1.1,0.3-1.7,0.3c-2.1,0-3.9-1.3-4.6-3.3c-3-8.6-11.2-14.1-20.5-14.1c-6,0-11.5,2-15.5,7h4.6c1.9,0,2.8,0.4,2.8,2.4v3.1
		c0,1.8-0.8,4-2.4,4.3c-0.1,0-0.2,0.3-0.4,0.3H35.5l0,0h-2h-4c-1.9,0-4,0.5-4,2.4v2.1c0,1.9,2.1,4.5,4,4.5h5h1.9
		c0.1-1,0.3-0.4,0.4-0.4c0.4-0.1,0.9-0.4,1.3-0.4c0.1,0,0.2-0.1,0.3-0.1c2.1,0,4,1.3,4.7,3.3c3,8.7,11.3,14.8,20.5,14.8
		c6.2,0,11.6-2.2,15.5-6.2h-4.6c-1.8,0-3.9-2-3.9-4v-3.1c0-0.9,0.5-2,3.9-2h17.3c0.1,0,0.3-0.3,0.4-0.3l0.3-0.1c0.5,0,0.9,0,1.4,0.4
		c0,0,0.1,0,0.1,0.1c0.7,0.7,0.7,1.1,0.7,2v5h23.9c4.3,0,7.1-4.7,7.1-8.7v-11.9C125.5,52.25,122.6,49.95,118.4,49.95z"/>
</g>
<path style="fill:#E8E3E3;" d="M18.7,60.95c-0.2-2.3-2.8-2.8-2.8-2.8c-0.5-0.2-1-0.2-1.4-0.2c-2.4,0-4.4,2-4.4,4.4s2,4.4,4.4,4.4
	s4.4-2,4.4-4.4c0-0.2-0.1-0.5-0.1-0.7C18.7,61.35,18.7,61.15,18.7,60.95z"/>
<g>
	<path style="fill:#61C2AB;" d="M115.5,64.85c0.7,0,1.4-0.3,1.8-0.8c0.5-0.5,0.7-1.1,0.7-1.7c-0.1-2.3-1.7-2.5-2.4-2.5h-0.1
		c-1.4,0-2.5,1.1-2.5,2.5S114.1,64.85,115.5,64.85z"/>
	<path style="fill:#61C2AB;" d="M105.5,64.85c0.8,0,1.7-0.4,2.2-1c0.2-0.3,0.5-0.8,0.3-1.4c-0.6-2.6-2.5-2.6-2.6-2.6
		c-1.4,0-2.5,1.1-2.5,2.5C103,63.75,104.1,64.85,105.5,64.85z"/>
	<path style="fill:#61C2AB;" d="M95.5,64.85c0.8,0,1.6-0.4,2.1-1c0.3-0.3,0.6-0.8,0.5-1.5c-0.4-2.4-2.5-2.6-2.6-2.6
		c-1.4,0-2.5,1.1-2.5,2.5S94.1,64.85,95.5,64.85z"/>
</g>
<path style="fill:#F4EFEF;" d="M118.4,85.95H94.5v3.3c0,2-0.9,4.2-2.5,4.4c-0.1,0-0.2,0.3-0.4,0.3h-2.9c-0.1,0-0.3-0.3-0.5-0.3
	c-1.7-0.3-3.4-2.2-3.7-3.8c0-0.2-0.1-0.4-0.1-0.6v-3.1c-3.2,3.4-7.6,5.8-12.5,7.8H54.5c-5.1-2-9.7-5-13.4-8h-0.6h-31
	c-3.9,0-8,2.1-8,6.3v11.9c0,4.1,4,8.7,8,8.7h108.8c4.3,0,7.1-4.7,7.1-8.7v-11.9C125.5,88.25,122.6,85.95,118.4,85.95z"/>
<path style="fill:#CDEEF9;" d="M29.5,94.95c-1.9,0-4,0.4-4,2.3v2.1c0,2,2.1,4.6,4,4.6h54.1c1.8,0,3-2.7,3-4.6v-2.1
	c0-1.9-1-2.3-3-2.3h-2H67c-1.3,0-2.5,0.2-3.8,0.2c-1.2,0-2.4-0.2-3.6-0.2h-4H29.5z"/>
<path style="fill:#E8E3E3;" d="M18.7,96.85c-0.2-2.3-2.7-2.8-2.8-2.8c-0.5-0.2-1-0.2-1.4-0.2c-2.4,0-4.4,2-4.4,4.4s2,4.4,4.4,4.4
	s4.4-2,4.4-4.4c0-0.2-0.1-0.5-0.1-0.7C18.7,97.35,18.7,97.05,18.7,96.85z"/>
<g>
	<path style="fill:#61C2AB;" d="M115.5,95.75c-1.4,0-2.5,1.1-2.5,2.5s1.1,2.5,2.5,2.5c0.8,0,1.6-0.4,2.1-0.9
		c0.3-0.3,0.6-0.8,0.5-1.5C117.7,95.75,115.6,95.75,115.5,95.75z"/>
	<path style="fill:#61C2AB;" d="M105.7,95.75c-0.1,0-0.1,0-0.1,0c-1.4,0-2.6,1.1-2.6,2.5s1.1,2.5,2.5,2.5c0.7,0,1.4-0.3,1.9-0.8
		c0.4-0.5,0.7-1.1,0.6-1.7C107.9,95.95,106.3,95.75,105.7,95.75z"/>
	<path style="fill:#61C2AB;" d="M95.7,95.75c-0.1,0-0.2,0-0.2,0c-1.5,0-2.6,1.1-2.6,2.5s1.1,2.5,2.5,2.5c0.8,0,1.5-0.4,2-0.9
		c0.3-0.3,0.6-0.8,0.5-1.5C97.7,96.05,96.5,95.75,95.7,95.75z"/>
</g>
<g>
	<path style="fill:#CC9999;" d="M92,93.35c-0.1,0-0.2,0.1-0.4,0.1C91.8,93.45,91.9,93.45,92,93.35z"/>
	<path style="fill:#CC9999;" d="M88.7,93.45c-0.1,0-0.3,0-0.5-0.1C88.4,93.45,88.6,93.45,88.7,93.45z"/>
	<path style="fill:#CC9999;" d="M84.6,89.65c0-0.2-0.1-0.3-0.1-0.5C84.5,89.35,84.5,89.55,84.6,89.65z"/>
</g>
<path style="fill:#FFC52F;" d="M93.1,70.75c-0.2-0.2-0.4-0.3-0.8-0.3l-0.3,0.3c-0.1,0-0.3,0.3-0.4,0.3H74.3c-1.3,0-2.9-0.2-2.9,1
	v2.9c0,1.4,1.6,3,2.9,3H80c0.2,0,0.4-0.1,0.5,0c0.1,0.2,0.1,0.3-0.1,0.4c-3.2,3.8-7.5,6.2-12.6,7.1c-1.4,0.3-2.9,0.4-4.4,0.4
	c-1.4,0-2.8-0.2-4.1-0.4c-7.9-1.5-14.6-7.1-17.3-14.8c-0.5-1.4-1.7-1.9-3.1-2.1c-0.2,0-0.4,0.4-0.6,0.4l0,0c-0.4,0-0.9-0.4-1.3-0.3
	c-0.2,0.1-0.4-0.1-0.5,0c-0.8,0.4-1.4,1-1.8,1.8c-0.4,0.9-0.4,1.8-0.1,2.7c0.2,0.5,0.4,0.9,0.5,1.4c1.7,4.2,4.2,7.9,7.3,10.8
	c4.6,4.4,10.5,7.2,17.1,8c1.2,0.1,2.4,0.2,3.6,0.2c1.3,0,2.5-0.1,3.8-0.2c6.7-0.8,12.7-3.6,16.9-8c0.3-0.3,0.6-0.6,0.9-1
	c0.1-0.2,0.4-0.2,0.6-0.1c0.2,0.1,0.3,0.3,0.3,0.5v0.6v3.8c0,1.4,1.9,3.7,3.2,3.7h2.9c1.3,0,1.8-2.5,1.8-3.7v-3.8v-13.4
	C93.5,71.25,93.5,71.15,93.1,70.75z"/>
<path style="fill:#CC9999;" d="M53.1,58.35c-0.1,0-0.2,0.1-0.4,0.1C52.8,58.45,53,58.45,53.1,58.35z"/>
<path style="fill:#FFC52F;" d="M92.5,53.05c-0.2-0.7-0.5-1.3-0.8-2c-1.6-3.7-3.8-6.9-6.6-9.6c-5.6-5.6-13.4-8.9-21.7-8.9
	c-8.1,0-15.8,3.2-21.7,8.9c-0.1,0.1-0.2,0.2-0.3,0.3c-0.1,0.1-0.4,0.2-0.5,0.1c-0.2-0.1-0.3-0.2-0.3-0.4l0,0v-4.4
	c0-1-0.3-1.1-2.1-1.1h-2.9c-1.1,0-2.9-0.3-2.9,1.1v3.4v1v7v1v4.9c0,0.5,0.3,1.2,0.7,1.7c0.1,0.1,0.2,0.5,0.3,0.6
	c0.5,0.5,1.4,1.3,2,1.3l0,0h17.2c1.4,0,1.8-2.5,1.8-3.6v-3.1c0-1.4-0.5-1.4-1.8-1.4h-5.7c-0.2,0-0.4-0.4-0.5-0.5
	c-0.1-0.2-0.1-0.5,0.1-0.7c3-3.6,6.9-6.1,11.2-7.2c1.8-0.5,3.8-0.8,5.7-0.8c2,0,3.9,0.2,5.7,0.7c7.2,1.9,13.2,7.1,15.7,14.3
	c0.5,1.5,2,2.6,3.7,2.6c0.5,0,0.9-0.1,1.4-0.2c1-0.3,1.7-1,2.2-1.9C92.7,55.25,92.8,54.15,92.5,53.05z"/>
<path d="M118.4,42.45H85.5c-0.6,0-1-0.4-1-1s0.4-1,1-1h32.9c3.8,0,6.6-4.3,6.6-8.1v-11.9c0-3.7-2.5-5.9-6.6-5.9H9.5
	c-3.7,0-7.5,2-7.5,5.9v11.9c0,4,3.8,8.1,7.5,8.1h22c0.6,0,1,0.4,1,1s-0.4,1-1,1h-22c-4.8,0-9.5-5-9.5-10.1v-11.9
	c0-5.2,4.8-7.9,9.5-7.9h108.8c5.2,0,8.6,3.2,8.6,7.9v11.9C127,37.15,123.5,42.45,118.4,42.45z"/>
<path d="M83.5,33.45h-54c-2.6,0-4.5-2.1-4.5-5.1v-3.1c0-3.9,3.4-3.9,4.5-3.9h44c0.6,0,1,0.4,1,1s-0.4,1-1,1h-44
	c-2.1,0-2.5,0.6-2.5,1.9v3.1c0,1.5,0.8,3.1,2.5,3.1h54.1c1.7,0,2.5-1.5,2.5-3.1v-3.1c0-1.3-0.4-1.9-2.5-1.9h-2c-0.6,0-1-0.4-1-1
	s0.4-1,1-1h2c3,0,4.5,1.3,4.5,3.9v3.1C88,31.35,86.1,33.45,83.5,33.45z"/>
<path d="M14.4,32.25c-3.3,0-5.9-2.7-5.9-5.9s2.7-5.9,5.9-5.9c0.6,0,1.2,0.1,1.8,0.3c0.5,0.2,0.8,0.7,0.6,1.3
	c-0.2,0.5-0.7,0.8-1.3,0.6c-0.4-0.1-0.8-0.2-1.2-0.2c-2.2,0-3.9,1.8-3.9,3.9s1.8,3.9,3.9,3.9c2.2,0,3.9-1.8,3.9-3.9
	c0-0.4-0.1-0.8-0.2-1.2c-0.2-0.5,0.1-1.1,0.7-1.2c0.5-0.2,1.1,0.1,1.2,0.7c0.2,0.6,0.3,1.1,0.3,1.7
	C20.4,29.65,17.7,32.25,14.4,32.25z"/>
<path d="M115.5,30.35c-2.2,0-4-1.8-4-4s1.8-4,4-4c0.6,0,1,0.4,1,1s-0.4,1-1,1c-1.1,0-2,0.9-2,2s0.9,2,2,2s2-0.9,2-2c0-0.6,0.4-1,1-1
	s1,0.4,1,1C119.5,28.55,117.7,30.35,115.5,30.35z"/>
<path d="M105.5,30.35c-2.2,0-4-1.8-4-4s1.8-4,4-4c0.6,0,1,0.4,1,1s-0.4,1-1,1c-1.1,0-2,0.9-2,2s0.9,2,2,2s2-0.9,2-2c0-0.6,0.4-1,1-1
	s1,0.4,1,1C109.5,28.55,107.7,30.35,105.5,30.35z"/>
<path d="M95.5,30.35c-2.2,0-4-1.8-4-4s1.8-4,4-4c0.6,0,1,0.4,1,1s-0.4,1-1,1c-1.1,0-2,0.9-2,2s0.9,2,2,2s2-0.9,2-2c0-0.6,0.4-1,1-1
	s1,0.4,1,1C99.5,28.55,97.7,30.35,95.5,30.35z"/>
<path d="M35.5,78.45h-26c-4.8,0-9.5-5-9.5-10.2v-11.9c0-5.2,4.8-7.9,9.5-7.9h22c0.6,0,1,0.4,1,1s-0.4,1-1,1h-22
	c-3.7,0-7.5,2-7.5,5.9v11.9c0,4,3.8,8.2,7.5,8.2h26c0.6,0,1,0.4,1,1S36.1,78.45,35.5,78.45z"/>
<path d="M118.4,78.45H94.5c-0.6,0-1-0.4-1-1s0.4-1,1-1h23.9c3.8,0,6.6-4.3,6.6-8.2v-11.9c0-3.6-2.5-5.9-6.6-5.9H91.5
	c-0.6,0-1-0.4-1-1s0.4-1,1-1h26.9c5.2,0,8.6,3.2,8.6,7.9v11.9C127,73.05,123.5,78.45,118.4,78.45z"/>
<path d="M35.5,69.45h-6c-2.6,0-4.5-2.1-4.5-5v-3.1c0-2.6,1.5-3.9,4.5-3.9h6c0.6,0,1,0.4,1,1s-0.4,1-1,1h-6c-2.1,0-2.5,0.6-2.5,1.9
	v3.1c0,1.5,0.8,3,2.5,3h6c0.6,0,1,0.4,1,1S36.1,69.45,35.5,69.45z"/>
<path d="M14.4,68.25c-3.3,0-5.9-2.7-5.9-5.9s2.7-5.9,5.9-5.9c0.6,0,1.2,0.1,1.8,0.3c0.5,0.2,0.8,0.7,0.6,1.3
	c-0.2,0.5-0.7,0.8-1.3,0.6c-0.4-0.1-0.8-0.2-1.2-0.2c-2.2,0-3.9,1.8-3.9,3.9c0,2.2,1.8,3.9,3.9,3.9c2.2,0,3.9-1.8,3.9-3.9
	c0-0.4-0.1-0.8-0.2-1.2c-0.2-0.5,0.1-1.1,0.7-1.2c0.5-0.2,1.1,0.1,1.2,0.7c0.2,0.6,0.3,1.1,0.3,1.7
	C20.4,65.65,17.7,68.25,14.4,68.25z"/>
<path d="M115.5,66.35c-2.2,0-4-1.8-4-4s1.8-4,4-4c0.6,0,1,0.4,1,1s-0.4,1-1,1c-1.1,0-2,0.9-2,2s0.9,2,2,2s2-0.9,2-2c0-0.6,0.4-1,1-1
	s1,0.4,1,1C119.5,64.55,117.7,66.35,115.5,66.35z"/>
<path d="M105.5,66.35c-2.2,0-4-1.8-4-4s1.8-4,4-4c0.6,0,1,0.4,1,1s-0.4,1-1,1c-1.1,0-2,0.9-2,2s0.9,2,2,2s2-0.9,2-2c0-0.6,0.4-1,1-1
	s1,0.4,1,1C109.5,64.55,107.7,66.35,105.5,66.35z"/>
<path d="M95.5,66.35c-2.2,0-4-1.8-4-4s1.8-4,4-4c0.6,0,1,0.4,1,1s-0.4,1-1,1c-1.1,0-2,0.9-2,2s0.9,2,2,2s2-0.9,2-2c0-0.6,0.4-1,1-1
	s1,0.4,1,1C99.5,64.55,97.7,66.35,95.5,66.35z"/>
<path d="M118.4,114.45H9.5c-4.8,0-9.5-5.1-9.5-10.2v-11.9c0-5.2,4.8-7.8,9.5-7.8h32c0.6,0,1,0.4,1,1s-0.4,1-1,1h-32
	c-3.7,0-7.5,2-7.5,5.8v11.9c0,4,3.9,8.2,7.5,8.2h108.8c3.8,0,6.6-4.3,6.6-8.2v-11.9c0-4.3-3.4-5.8-6.6-5.8H95.5c-0.6,0-1-0.4-1-1
	s0.4-1,1-1h22.9c5.3,0,8.6,3.1,8.6,7.8v11.9C127,109.05,123.5,114.45,118.4,114.45z"/>
<path d="M83.5,105.45h-54c-2.6,0-4.5-2.2-4.5-5.1v-3.1c0-3.8,3.2-3.8,4.5-3.8h44c0.6,0,1,0.4,1,1s-0.4,1-1,1h-44
	c-2.1,0-2.5,0.5-2.5,1.8v3.1c0,1.5,0.8,3.1,2.5,3.1h54.1c1.7,0,2.5-1.6,2.5-3.1v-3.1c0-1.2-0.3-1.8-2.5-1.8h-2c-0.6,0-1-0.4-1-1
	s0.4-1,1-1h2c1.2,0,4.5,0,4.5,3.8v3.1C88,103.25,86.1,105.45,83.5,105.45z"/>
<path d="M14.4,104.25c-3.3,0-5.9-2.7-5.9-5.9s2.7-5.9,5.9-5.9c0.6,0,1.2,0.1,1.8,0.3c0.5,0.2,0.8,0.7,0.6,1.3
	c-0.2,0.5-0.7,0.8-1.3,0.6c-0.4-0.1-0.8-0.2-1.2-0.2c-2.2,0-3.9,1.8-3.9,3.9c0,2.2,1.8,3.9,3.9,3.9c2.2,0,3.9-1.8,3.9-3.9
	c0-0.4-0.1-0.8-0.2-1.2c-0.2-0.5,0.1-1.1,0.7-1.2c0.5-0.2,1.1,0.1,1.2,0.7c0.2,0.6,0.3,1.1,0.3,1.7
	C20.4,101.55,17.7,104.25,14.4,104.25z"/>
<path d="M115.5,102.25c-2.2,0-4-1.8-4-4s1.8-4,4-4c0.6,0,1,0.4,1,1s-0.4,1-1,1c-1.1,0-2,0.9-2,2s0.9,2,2,2s2-0.9,2-2
	c0-0.6,0.4-1,1-1s1,0.4,1,1C119.5,100.45,117.7,102.25,115.5,102.25z"/>
<path d="M105.5,102.25c-2.2,0-4-1.8-4-4s1.8-4,4-4c0.6,0,1,0.4,1,1s-0.4,1-1,1c-1.1,0-2,0.9-2,2s0.9,2,2,2s2-0.9,2-2
	c0-0.6,0.4-1,1-1s1,0.4,1,1C109.5,100.45,107.7,102.25,105.5,102.25z"/>
<path d="M95.5,102.25c-2.2,0-4-1.8-4-4s1.8-4,4-4c0.6,0,1,0.4,1,1s-0.4,1-1,1c-1.1,0-2,0.9-2,2s0.9,2,2,2s2-0.9,2-2c0-0.6,0.4-1,1-1
	s1,0.4,1,1C99.5,100.45,97.7,102.25,95.5,102.25z"/>
<path d="M63.1,95.15c-13.6,0-25.3-8.4-29.9-21.5c-1-2.8,0.5-5.9,3.3-6.9s5.9,0.5,6.9,3.4c3,8.6,11,14.3,20,14.3
	c5.8,0,10.7-1.8,14.3-5.1h-3.4c-2.1,0-4.4-2.3-4.4-4.5v-2.9c0-0.7,0.2-1.3,0.7-1.7c0.9-0.9,2.2-0.9,3.5-0.8h17.5
	c0.2,0,0.4,0,0.5-0.1c0.5-0.1,1.2-0.2,2,0.5c0.7,0.7,0.9,1,0.9,2.1v17.2c0,2-0.9,5.2-3.3,5.2h-2.9c-2.2,0-4.7-3.1-4.7-5.2v-1.9
	C78.8,92.25,71.2,95.15,63.1,95.15z M38.3,68.55c-0.4,0-0.7,0.1-1.1,0.2c-1.8,0.6-2.7,2.6-2.1,4.3c4.3,12.2,15.3,20.1,28,20.1
	c8.4,0,16.3-3.4,21.1-9c0.3-0.3,0.7-0.4,1.1-0.3c0.4,0.1,0.7,0.5,0.7,0.9v4.4c0,1.2,1.7,3.2,2.7,3.2h2.9c0.7,0,1.3-1.8,1.3-3.2
	v-17.2c0-0.1,0-0.4,0-0.5c0,0-0.1-0.1-0.3-0.2l0,0l0,0c0,0-0.1,0-0.2,0.1c-0.2,0-0.5,0.1-0.9,0.1H74c-0.7,0-1.8,0-2.1,0.3
	c-0.1,0.1-0.1,0.2-0.1,0.3v2.9c0,1.1,1.3,2.5,2.4,2.5h5.7c0.4,0,0.7,0.2,0.9,0.6s0.1,0.8-0.1,1.1c-4.1,4.9-10.1,7.5-17.4,7.5
	c-9.8,0-18.6-6.3-21.9-15.7C41.1,69.45,39.8,68.55,38.3,68.55z"/>
<path d="M88.6,59.95c-2.2,0-4.3-1.3-5-3.5c-2.9-8.3-11-13.9-20-13.9c-5.3,0-10.4,2.2-14.3,6h3.4c1.6,0,3.3,0.2,3.3,2.9v3.1
	c0,2-0.9,5.1-3.3,5.1H35.5c-0.9,0-1.9-0.6-3-1.7c-0.8-0.7-1.4-2.3-1.4-3.3v-17.4c0-0.9,0.4-1.4,0.7-1.7c0.9-0.9,2.3-0.9,3.6-0.9h3.1
	h0.2c1.1,0,2.1,0,2.8,0.7c0.4,0.4,0.6,1,0.6,1.9v2.2c5.6-4.7,12.8-7.1,21.4-7.1c14.1,0,26.1,8.1,30.4,20.5c1,2.9-0.5,6-3.3,7
	C89.9,59.85,89.3,59.95,88.6,59.95z M63.6,40.45c9.9,0,18.7,6.1,21.9,15.3c0.6,1.8,2.5,2.6,4.4,2c1.8-0.6,2.7-2.7,2.1-4.5
	c-4.1-11.6-15.3-19.2-28.6-19.2c-9,0-16.3,2.7-21.7,8c-0.3,0.3-0.7,0.4-1.1,0.2c-0.4-0.2-0.6-0.5-0.6-0.9v-4.4
	c0-0.4-0.1-0.5-0.1-0.5c-0.1-0.1-0.8-0.1-1.4-0.1h-3.1h-0.2c-0.8,0-1.9,0-2.2,0.3c0,0-0.1,0.1-0.1,0.3v17.4c0,0.5,0.4,1.6,0.8,1.9
	l0,0c1.1,1.1,1.6,1.1,1.6,1.1h17.3c0.7,0,1.3-1.6,1.3-3.1v-3.1c0-0.9,0-0.9-1.3-0.9h-5.7c-0.4,0-0.7-0.2-0.9-0.6s-0.1-0.8,0.1-1.1
	C50.6,43.55,57,40.45,63.6,40.45z"/>
</svg>