<?xml version="1.0" encoding="iso-8859-1"?>
<!-- Uploaded to: SVG Repo, www.svgrepo.com, Generator: SVG Repo Mixer Tools -->
<svg version="1.1" id="Layer_1" xmlns="http://www.w3.org/2000/svg" xmlns:xlink="http://www.w3.org/1999/xlink" 
	 viewBox="0 0 512 512" xml:space="preserve">
<circle style="fill:#1FCFC1;" cx="256" cy="256" r="245.801"/>
<rect x="148.908" y="148.908" style="fill:#F2F2F2;" width="214.183" height="214.183"/>
<g>
	<path style="fill:#4D4D4D;" d="M256,512c-68.381,0-132.667-26.628-181.019-74.981C26.628,388.667,0,324.381,0,256
		S26.628,123.333,74.981,74.981C123.333,26.628,187.619,0,256,0s132.667,26.628,181.019,74.981C485.372,123.333,512,187.619,512,256
		s-26.628,132.667-74.981,181.019C388.667,485.372,324.381,512,256,512z M256,20.398C126.089,20.398,20.398,126.089,20.398,256
		S126.089,491.602,256,491.602S491.602,385.911,491.602,256S385.911,20.398,256,20.398z"/>
	<path style="fill:#4D4D4D;" d="M363.092,373.291H148.908c-5.632,0-10.199-4.567-10.199-10.199V148.908
		c0-5.632,4.567-10.199,10.199-10.199h214.183c5.632,0,10.199,4.567,10.199,10.199v214.183
		C373.291,368.724,368.724,373.291,363.092,373.291z M159.108,352.892h193.785V159.108H159.108V352.892z"/>
	<path style="fill:#4D4D4D;" d="M256,473.243c-5.632,0-10.199-4.567-10.199-10.199c0-5.632,4.567-10.199,10.199-10.199
		c52.815,0,102.404-20.633,139.633-58.101c3.973-3.996,10.429-4.016,14.425-0.046c3.995,3.972,4.016,10.429,0.046,14.425
		C369.016,450.471,314.287,473.243,256,473.243z"/>
	<path style="fill:#4D4D4D;" d="M430.396,377.824c-1.886,0-3.792-0.522-5.497-1.616c-4.741-3.041-6.12-9.351-3.078-14.091
		c1.512-2.357,2.996-4.784,4.413-7.218c2.833-4.866,9.075-6.518,13.946-3.681c4.867,2.834,6.516,9.078,3.681,13.946
		c-1.564,2.684-3.203,5.366-4.871,7.968C437.043,376.167,433.755,377.824,430.396,377.824z"/>
</g>
</svg>