<?xml version="1.0" encoding="iso-8859-1"?>
<!-- Uploaded to: SVG Repo, www.svgrepo.com, Generator: SVG Repo Mixer Tools -->
<svg version="1.1" id="Layer_1" xmlns="http://www.w3.org/2000/svg" xmlns:xlink="http://www.w3.org/1999/xlink" 
	 viewBox="0 0 512 512" xml:space="preserve">
<path style="fill:#F2F2F2;" d="M79.752,501.801h352.497c10.745,0,19.456-8.711,19.456-19.456V29.655
	c0-10.745-8.711-19.456-19.456-19.456H79.752c-10.745,0-19.456,8.711-19.456,19.456v452.69
	C60.296,493.091,69.007,501.801,79.752,501.801z"/>
<path style="fill:#847C7C;" d="M256,476.03L256,476.03c7.248,0,13.123-5.876,13.123-13.123v-1.016
	c0-7.248-5.876-13.123-13.123-13.123l0,0c-7.248,0-13.123,5.876-13.123,13.123v1.016C242.877,470.155,248.752,476.03,256,476.03z"/>
<rect x="112.987" y="62.965" style="fill:#1FCFC1;" width="286.026" height="360.032"/>
<g>
	<path style="fill:#4D4D4D;" d="M432.248,512H79.752c-16.351,0-29.655-13.303-29.655-29.654V29.655C50.096,13.304,63.4,0,79.752,0
		h352.497c16.351,0,29.655,13.304,29.655,29.655v452.691C461.904,498.697,448.6,512,432.248,512z M79.752,20.398
		c-5.104,0-9.257,4.152-9.257,9.257v452.691c0,5.104,4.152,9.256,9.257,9.256h352.497c5.104,0,9.257-4.152,9.257-9.256V29.655
		c0-5.105-4.152-9.257-9.257-9.257H79.752z"/>
	<path style="fill:#4D4D4D;" d="M256,486.229c-12.86,0-23.323-10.462-23.323-23.323v-1.015c0-12.86,10.462-23.323,23.323-23.323
		c12.86,0,23.323,10.462,23.323,23.323v1.015C279.323,475.767,268.86,486.229,256,486.229z M256,458.967
		c-1.612,0-2.924,1.312-2.924,2.924v1.015c0,1.612,1.312,2.924,2.924,2.924c1.613,0,2.924-1.312,2.924-2.924v-1.015
		C258.924,460.279,257.612,458.967,256,458.967z"/>
	<path style="fill:#4D4D4D;" d="M270.279,45.626h-28.558c-5.633,0-10.199-4.567-10.199-10.199s4.566-10.199,10.199-10.199h28.558
		c5.633,0,10.199,4.567,10.199,10.199S275.912,45.626,270.279,45.626z"/>
	<path style="fill:#4D4D4D;" d="M399.013,433.196H112.987c-5.633,0-10.199-4.567-10.199-10.199V62.965
		c0-5.632,4.566-10.199,10.199-10.199h286.026c5.633,0,10.199,4.567,10.199,10.199v360.032
		C409.212,428.63,404.646,433.196,399.013,433.196z M123.186,412.797h265.628V73.164H123.186V412.797z"/>
	<path style="fill:#4D4D4D;" d="M145.849,401.573c-5.633,0-10.199-4.567-10.199-10.199v-128.51c0-5.632,4.566-10.199,10.199-10.199
		s10.199,4.567,10.199,10.199v128.51C156.048,397.007,151.482,401.573,145.849,401.573z"/>
	<path style="fill:#4D4D4D;" d="M145.849,242.466c-5.633,0-10.199-4.567-10.199-10.199v-9.179c0-5.632,4.566-10.199,10.199-10.199
		s10.199,4.567,10.199,10.199v9.179C156.048,237.899,151.482,242.466,145.849,242.466z"/>
</g>
</svg>