<?xml version="1.0" encoding="iso-8859-1"?>
<!-- Uploaded to: SVG Repo, www.svgrepo.com, Generator: SVG Repo Mixer Tools -->
<svg height="800px" width="800px" version="1.1" id="Layer_1" xmlns="http://www.w3.org/2000/svg" xmlns:xlink="http://www.w3.org/1999/xlink" 
	 viewBox="0 0 512 512" xml:space="preserve">
<path style="fill:#FBB429;" d="M496.768,281.052L230.953,15.238c-3.226-3.226-7.601-5.038-12.164-5.038H27.408
	c-9.501,0-17.203,7.702-17.203,17.203v191.381c0,4.562,1.812,8.938,5.038,12.164l265.816,265.816c6.718,6.718,17.61,6.718,24.328,0
	L496.769,305.38C503.486,298.662,503.486,287.771,496.768,281.052z M64.538,100.213c-9.853-9.853-9.853-25.828,0-35.681
	s25.828-9.853,35.681,0s9.853,25.828,0,35.681S74.391,110.067,64.538,100.213z"/>
<g>
	<path style="fill:#4D4D4D;" d="M293.222,512c-7.319,0-14.199-2.851-19.375-8.026L8.032,238.16
		c-5.175-5.176-8.026-12.056-8.026-19.376V27.401C0.006,12.292,12.298,0,27.408,0H218.79c7.32,0,14.2,2.851,19.376,8.026
		L503.981,273.84c10.684,10.685,10.684,28.068,0,38.752L312.599,503.974C307.423,509.149,300.542,512,293.222,512z M27.408,20.398
		c-3.861,0-7.003,3.141-7.003,7.003v191.382c0,1.871,0.728,3.63,2.052,4.952l265.815,265.815c1.323,1.323,3.081,2.052,4.951,2.052
		c1.871,0,3.63-0.729,4.952-2.052l191.382-191.382c1.323-1.323,2.052-3.081,2.052-4.952c0-1.87-0.729-3.629-2.052-4.951
		L223.741,22.45c-1.323-1.324-3.082-2.052-4.953-2.052H27.408z M82.378,117.803c-9.463,0-18.361-3.685-25.052-10.378
		c-13.813-13.814-13.813-36.291,0-50.105c13.815-13.815,36.291-13.814,50.106-0.001c6.693,6.693,10.378,15.589,10.378,25.052
		c0,9.464-3.686,18.362-10.379,25.052C100.74,114.117,91.843,117.803,82.378,117.803z M82.378,67.348
		c-3.849,0-7.698,1.466-10.63,4.396c-5.859,5.86-5.859,15.397,0.001,21.257c2.838,2.839,6.613,4.403,10.629,4.403
		c4.015,0,7.79-1.564,10.629-4.402c2.839-2.839,4.403-6.614,4.403-10.63c0-4.015-1.564-7.79-4.403-10.629
		C90.078,68.814,86.228,67.348,82.378,67.348z"/>
	<path style="fill:#4D4D4D;" d="M198.892,378.391c-2.611,0-5.22-0.996-7.212-2.987l-2.551-2.551c-3.983-3.983-3.983-10.441,0-14.425
		c3.984-3.982,10.44-3.982,14.425,0l2.551,2.551c3.983,3.983,3.983,10.441,0,14.425
		C204.112,377.395,201.502,378.391,198.892,378.391z"/>
	<path style="fill:#4D4D4D;" d="M291.704,471.203c-2.611,0-5.22-0.996-7.212-2.987l-70.374-70.375
		c-3.983-3.983-3.983-10.441,0-14.425c3.984-3.982,10.44-3.982,14.425,0l70.374,70.375c3.983,3.983,3.983,10.441,0,14.425
		C296.924,470.207,294.314,471.203,291.704,471.203z"/>
</g>
</svg>