<?xml version="1.0" encoding="iso-8859-1"?>
<!-- Uploaded to: SVG Repo, www.svgrepo.com, Generator: SVG Repo Mixer Tools -->
<svg version="1.1" id="Layer_1" xmlns="http://www.w3.org/2000/svg" xmlns:xlink="http://www.w3.org/1999/xlink" 
	 viewBox="0 0 512 512" xml:space="preserve">
<rect x="188.175" y="274.012" style="fill:#847C7C;" width="288.178" height="227.789"/>
<g>
	<path style="fill:#F2F2F2;" d="M373.587,368.305c0-22.821-18.499-41.32-41.32-41.32s-41.32,18.499-41.32,41.32
		c0,16.777,10.004,31.208,24.368,37.68v48.138h33.903v-48.138C363.583,399.514,373.587,385.082,373.587,368.305z"/>
	<path style="fill:#F2F2F2;" d="M76.802,274.011V124.624c0-39.47,31.997-71.467,71.467-71.467l0,0
		c39.47,0,71.467,31.997,71.467,71.467v149.388h41.161V122.827c0-62.203-50.425-112.628-112.628-112.628l0,0
		c-62.203,0-112.628,50.425-112.628,112.628v151.185h41.161V274.011z"/>
</g>
<g>
	<path style="fill:#4D4D4D;" d="M476.357,263.813H271.095V122.827C271.095,55.099,215.995,0,148.268,0S25.442,55.099,25.442,122.827
		v151.185c0,5.633,4.566,10.199,10.199,10.199h41.161c5.633,0,10.199-4.566,10.199-10.199V124.624
		c0-33.783,27.485-61.267,61.268-61.267s61.267,27.484,61.267,61.267v139.189h-21.358c-5.633,0-10.199,4.566-10.199,10.199v227.789
		c0,5.633,4.566,10.199,10.199,10.199h288.181c5.632,0,10.199-4.566,10.199-10.199V274.012
		C486.557,268.379,481.99,263.813,476.357,263.813z M148.268,42.958c-45.031,0-81.665,36.635-81.665,81.665v139.189H45.841V122.827
		c0-56.479,45.948-102.429,102.428-102.429s102.428,45.949,102.428,102.429v140.986h-20.763V124.624
		C229.934,79.594,193.299,42.958,148.268,42.958z M466.158,284.211v207.391H198.377V284.211H466.158z"/>
	<path style="fill:#4D4D4D;" d="M305.117,412.084v42.041c0,5.633,4.567,10.199,10.199,10.199h33.903
		c5.632,0,10.199-4.566,10.199-10.199v-42.041c14.991-9.312,24.368-25.844,24.368-43.777c0-28.408-23.111-51.519-51.519-51.519
		s-51.519,23.111-51.519,51.519C280.748,386.239,290.125,402.771,305.117,412.084z M332.267,337.185
		c17.16,0,31.121,13.961,31.121,31.121c0,12.216-7.206,23.356-18.359,28.381c-3.657,1.648-6.009,5.287-6.009,9.299v37.939h-13.505
		v-37.939c0-4.011-2.352-7.65-6.009-9.299c-11.154-5.026-18.36-16.167-18.36-28.381
		C301.146,351.145,315.107,337.185,332.267,337.185z"/>
	<path style="fill:#4D4D4D;" d="M222.081,342.214c-5.633,0-10.199,4.566-10.199,10.199v116.543c0,5.633,4.566,10.199,10.199,10.199
		c5.633,0,10.199-4.566,10.199-10.199V352.413C232.28,346.78,227.714,342.214,222.081,342.214z"/>
	<path style="fill:#4D4D4D;" d="M222.081,305.132c-5.633,0-10.199,4.566-10.199,10.199v5.297c0,5.633,4.566,10.199,10.199,10.199
		c5.633,0,10.199-4.566,10.199-10.199v-5.297C232.28,309.698,227.714,305.132,222.081,305.132z"/>
</g>
</svg>