<?xml version="1.0" encoding="iso-8859-1"?>
<!-- Uploaded to: SVG Repo, www.svgrepo.com, Generator: SVG Repo Mixer Tools -->
<svg height="800px" width="800px" version="1.1" id="Layer_1" xmlns="http://www.w3.org/2000/svg" xmlns:xlink="http://www.w3.org/1999/xlink" 
	 viewBox="0 0 512 512" xml:space="preserve">
<polygon style="fill:#F2F2F2;" points="256,10.199 120.371,145.828 202.005,145.828 202.005,501.801 309.996,501.801 
	309.996,145.828 391.629,145.828 "/>
<g>
	<path style="fill:#4D4D4D;" d="M309.996,512H202.005c-5.633,0-10.199-4.567-10.199-10.199V156.027h-71.434
		c-4.125,0-7.844-2.486-9.423-6.296c-1.579-3.811-0.706-8.198,2.21-11.115L248.788,2.987C250.701,1.075,253.296,0,256,0
		c2.705,0,5.3,1.075,7.212,2.987l135.629,135.629c2.917,2.917,3.789,7.304,2.21,11.115c-1.579,3.81-5.297,6.296-9.423,6.296h-71.434
		v345.773C320.195,507.433,315.629,512,309.996,512z M212.204,491.602h87.594V145.828c0-5.632,4.566-10.199,10.199-10.199h57.009
		L256,24.624L144.994,135.629h57.009c5.633,0,10.199,4.567,10.199,10.199v345.773H212.204z"/>
	<path style="fill:#4D4D4D;" d="M277.419,477.639c-5.633,0-10.199-4.567-10.199-10.199V362.852c0-5.632,4.566-10.199,10.199-10.199
		s10.199,4.567,10.199,10.199V467.44C287.618,473.072,283.052,477.639,277.419,477.639z"/>
	<path style="fill:#4D4D4D;" d="M277.419,339.95c-5.633,0-10.199-4.567-10.199-10.199v-6.436c0-5.632,4.566-10.199,10.199-10.199
		s10.199,4.567,10.199,10.199v6.436C287.618,335.382,283.052,339.95,277.419,339.95z"/>
</g>
</svg>