<?xml version="1.0" encoding="iso-8859-1"?>
<!-- Uploaded to: SVG Repo, www.svgrepo.com, Generator: SVG Repo Mixer Tools -->
<svg height="800px" width="800px" version="1.1" id="Layer_1" xmlns="http://www.w3.org/2000/svg" xmlns:xlink="http://www.w3.org/1999/xlink" 
	 viewBox="0 0 511.999 511.999" xml:space="preserve">
<polygon style="fill:#847C7C;" points="414.111,433.95 97.888,433.95 97.888,341.322 32.461,341.322 32.461,501.8 479.539,501.8 
	479.539,341.322 414.111,341.322 "/>
<polygon style="fill:#1FCFC1;" points="256,10.197 154.52,111.677 215.599,111.677 215.599,378.022 296.4,378.022 296.4,111.677 
	357.48,111.677 "/>
<g>
	<path style="fill:#4D4D4D;" d="M479.539,511.999H32.461c-5.632,0-10.199-4.567-10.199-10.199V341.322
		c0-5.632,4.567-10.199,10.199-10.199h65.427c5.632,0,10.199,4.567,10.199,10.199v82.428h295.825v-82.428
		c0-5.632,4.567-10.199,10.199-10.199h65.427c5.632,0,10.199,4.567,10.199,10.199V501.8
		C489.738,507.432,485.171,511.999,479.539,511.999z M42.66,491.601h426.68V351.522h-45.028v82.428
		c0,5.632-4.567,10.199-10.199,10.199H97.888c-5.632,0-10.199-4.567-10.199-10.199v-82.428H42.66V491.601z"/>
	<path style="fill:#4D4D4D;" d="M296.4,388.221h-80.801c-5.632,0-10.199-4.567-10.199-10.199V121.877h-50.881
		c-4.126,0-7.844-2.486-9.423-6.296c-1.578-3.811-0.705-8.198,2.211-11.115l101.48-101.48c3.984-3.982,10.44-3.982,14.425,0
		l101.48,101.48c2.916,2.917,3.789,7.304,2.211,11.115c-1.579,3.81-5.297,6.296-9.423,6.296h-50.881v256.145
		C306.599,383.655,302.033,388.221,296.4,388.221z M225.798,367.823h60.403V111.678c0-5.632,4.567-10.199,10.199-10.199h36.456
		L256,24.622l-76.856,76.856H215.6c5.632,0,10.199,4.567,10.199,10.199v256.146H225.798z"/>
	<path style="fill:#4D4D4D;" d="M262.78,355.447c-5.632,0-10.199-4.567-10.199-10.199v-75.717c0-5.632,4.567-10.199,10.199-10.199
		c5.632,0,10.199,4.567,10.199,10.199v75.717C272.98,350.881,268.413,355.447,262.78,355.447z"/>
	<path style="fill:#4D4D4D;" d="M262.78,242.436c-5.632,0-10.199-4.567-10.199-10.199v-5.65c0-5.632,4.567-10.199,10.199-10.199
		c5.632,0,10.199,4.567,10.199,10.199v5.65C272.98,237.869,268.413,242.436,262.78,242.436z"/>
</g>
</svg>