<?xml version="1.0" encoding="iso-8859-1"?>
<!-- Uploaded to: SVG Repo, www.svgrepo.com, Generator: SVG Repo Mixer Tools -->
<svg height="800px" width="800px" version="1.1" id="Layer_1" xmlns="http://www.w3.org/2000/svg" xmlns:xlink="http://www.w3.org/1999/xlink" 
	 viewBox="0 0 512 512" xml:space="preserve">
<circle style="fill:#1FCFC1;" cx="256" cy="256" r="245.801"/>
<g>
	<path style="fill:#4D4D4D;" d="M437.02,74.981C388.667,26.628,324.38,0,256,0S123.333,26.628,74.98,74.981
		C26.628,123.333,0,187.619,0,256s26.628,132.667,74.98,181.019C123.333,485.372,187.62,512,256,512s132.667-26.628,181.02-74.981
		C485.372,388.667,512,324.381,512,256S485.372,123.333,437.02,74.981z M491.367,245.801H266.199V23.778
		c20.95,3.223,41.176,16.34,59.025,38.435c21.227,26.277,37.516,63.015,47.108,106.244c1.22,5.499,6.667,8.968,12.167,7.748
		c5.499-1.22,8.968-6.667,7.748-12.167c-13.235-59.647-38.201-106.455-69.457-133.983
		C417.149,57.998,486.99,143.558,491.367,245.801z M245.801,23.778v222.022H130.489c1.388-59.407,14.882-114.761,38.364-156.805
		C190.12,50.916,217.131,28.158,245.801,23.778z M245.801,266.199v222.022c-28.67-4.38-55.681-27.138-76.948-65.218
		c-23.482-42.043-36.975-97.397-38.364-156.805H245.801z M266.199,488.222V266.199h115.312
		c-1.388,59.407-14.882,114.761-38.364,156.805C321.88,461.084,294.869,483.842,266.199,488.222z M189.199,30.06
		c-14.03,12.407-26.906,28.847-38.154,48.989c-25.137,45.005-39.547,103.888-40.958,166.752H20.633
		C25.01,143.562,94.844,58.005,189.199,30.06z M20.633,266.199h89.455c1.41,62.864,15.82,121.747,40.957,166.752
		c11.249,20.141,24.124,36.581,38.154,48.989C94.844,453.995,25.01,368.438,20.633,266.199z M322.801,481.94
		c14.03-12.407,26.905-28.847,38.154-48.989c25.137-45.005,39.547-103.888,40.958-166.752h89.455
		C486.99,368.438,417.156,453.995,322.801,481.94z"/>
	<path style="fill:#4D4D4D;" d="M387.492,193.865c-5.591,0.68-9.573,5.765-8.893,11.357c0.28,2.308,0.544,4.627,0.786,6.959
		c0.547,5.243,4.973,9.144,10.132,9.144c0.353,0,0.71-0.019,1.069-0.056c5.602-0.583,9.671-5.598,9.087-11.201
		c-0.255-2.449-0.531-4.886-0.826-7.31C398.168,197.166,393.084,193.177,387.492,193.865z"/>
</g>
</svg>