<?xml version="1.0" encoding="iso-8859-1"?>
<!-- Uploaded to: SVG Repo, www.svgrepo.com, Generator: SVG Repo Mixer Tools -->
<svg height="800px" width="800px" version="1.1" id="Layer_1" xmlns="http://www.w3.org/2000/svg" xmlns:xlink="http://www.w3.org/1999/xlink" 
	 viewBox="0 0 511.999 511.999" xml:space="preserve">
<path style="fill:#1FCFC1;" d="M494.714,460.508l-127.95-127.95c26.531-33.87,42.35-76.534,42.35-122.893
	c0-110.158-89.3-199.458-199.458-199.458S10.199,99.507,10.199,209.665s89.3,199.458,199.458,199.458
	c46.359,0,89.024-15.819,122.893-42.35l127.951,127.95c9.448,9.448,24.766,9.448,34.214,0
	C504.163,485.275,504.163,469.956,494.714,460.508z"/>
<circle style="fill:#F2F2F2;" cx="209.655" cy="209.665" r="153.223"/>
<polygon style="fill:#1FCFC1;" points="308.016,230.331 308.016,189.693 229.501,189.693 229.501,111.179 188.864,111.179 
	188.864,189.693 110.349,189.693 110.349,230.331 188.864,230.331 188.864,308.846 229.501,308.846 229.501,230.331 "/>
<g>
	<path style="fill:#4D4D4D;" d="M477.607,511.991c-8.807,0-17.614-3.352-24.318-10.056L331.592,380.238
		c-35.678,25.603-77.641,39.084-121.935,39.084C94.052,419.322,0,325.27,0,209.665S94.052,0.008,209.657,0.008
		S419.314,94.06,419.314,209.666c0,44.294-13.482,86.257-39.084,121.935l121.696,121.697c6.496,6.495,10.074,15.133,10.074,24.319
		s-3.578,17.824-10.074,24.32C495.221,508.639,486.415,511.991,477.607,511.991z M332.548,356.573c2.623,0,5.235,1.008,7.214,2.987
		l127.95,127.95c5.457,5.458,14.334,5.456,19.791,0c2.643-2.644,4.099-6.157,4.099-9.895c0-3.738-1.455-7.252-4.099-9.894l0,0
		l-127.95-127.95c-3.646-3.646-3.997-9.441-0.817-13.501c26.286-33.558,40.181-73.88,40.181-116.604
		c0-104.357-84.901-189.259-189.258-189.259S20.398,105.307,20.398,209.665S105.3,398.924,209.657,398.924
		c42.725,0,83.046-13.894,116.604-40.181C328.118,357.29,330.337,356.573,332.548,356.573z"/>
	<path style="fill:#4D4D4D;" d="M209.657,373.086c-90.111,0-163.422-73.311-163.422-163.421
		c0-90.112,73.311-163.422,163.422-163.422s163.422,73.311,163.422,163.422C373.079,299.775,299.768,373.086,209.657,373.086z
		 M209.657,66.641c-78.863,0-143.023,64.16-143.023,143.023s64.16,143.023,143.023,143.023S352.68,288.529,352.68,209.666
		S288.52,66.641,209.657,66.641z"/>
	<path style="fill:#4D4D4D;" d="M229.501,319.045L229.501,319.045l-40.638-0.001c-5.633,0-10.199-4.567-10.199-10.199V240.53H110.35
		c-5.633,0-10.199-4.567-10.199-10.199v-40.639c0-5.632,4.566-10.199,10.199-10.199h68.314v-68.314
		c0-5.632,4.566-10.199,10.199-10.199h40.638c5.633,0,10.199,4.567,10.199,10.199v68.314h68.315c5.633,0,10.199,4.567,10.199,10.199
		v40.639c0,5.632-4.566,10.199-10.199,10.199h-68.315v68.315c0,2.705-1.075,5.298-2.987,7.212
		C234.801,317.971,232.206,319.045,229.501,319.045z M199.063,298.645l20.239,0.001v-68.315c0-5.632,4.566-10.199,10.199-10.199
		h68.315v-20.24h-68.315c-5.633,0-10.199-4.567-10.199-10.199v-68.314h-20.239v68.314c0,5.632-4.566,10.199-10.199,10.199h-68.314
		v20.24h68.314c5.633,0,10.199,4.567,10.199,10.199V298.645z"/>
	<path style="fill:#4D4D4D;" d="M315.669,279.469c-1.695,0-3.414-0.423-4.996-1.315c-4.908-2.765-6.646-8.984-3.881-13.892
		c1.147-2.038,2.244-4.137,3.258-6.236c2.448-5.073,8.544-7.204,13.619-4.753c5.073,2.447,7.201,8.545,4.753,13.618
		c-1.2,2.487-2.498,4.971-3.856,7.383C322.693,277.598,319.232,279.469,315.669,279.469z"/>
	<path style="fill:#4D4D4D;" d="M270.288,325.306c-3.528,0-6.959-1.833-8.847-5.11c-2.812-4.88-1.134-11.117,3.746-13.929
		c9.199-5.298,17.595-11.885,24.956-19.575c3.895-4.068,10.351-4.211,14.421-0.315c4.069,3.895,4.21,10.351,0.315,14.421
		c-8.702,9.091-18.631,16.878-29.508,23.145C273.766,324.867,272.016,325.306,270.288,325.306z"/>
</g>
</svg>