<?xml version="1.0" encoding="iso-8859-1"?>
<!-- Uploaded to: SVG Repo, www.svgrepo.com, Generator: SVG Repo Mixer Tools -->
<svg version="1.1" id="Layer_1" xmlns="http://www.w3.org/2000/svg" xmlns:xlink="http://www.w3.org/1999/xlink" 
	 viewBox="0 0 512 512" xml:space="preserve">
<path style="fill:#1FCFC1;" d="M494.731,460.516L366.777,332.561c26.532-33.871,42.352-76.536,42.352-122.897
	c0-110.161-89.303-199.464-199.464-199.464S10.2,99.503,10.2,209.664s89.303,199.464,199.464,199.464
	c46.361,0,89.027-15.819,122.897-42.352L460.515,494.73c9.448,9.448,24.767,9.448,34.215,0
	C504.179,485.283,504.179,469.964,494.731,460.516z"/>
<circle style="fill:#F2F2F2;" cx="209.661" cy="209.662" r="153.227"/>
<rect x="110.349" y="189.691" style="fill:#1FCFC1;" width="197.677" height="40.64"/>
<g>
	<path style="fill:#4D4D4D;" d="M477.623,512c-8.807,0-17.616-3.353-24.32-10.057L331.603,380.243
		c-35.678,25.604-77.644,39.086-121.938,39.086C94.055,419.328,0,325.273,0,209.665S94.055,0,209.665,0
		s209.665,94.055,209.665,209.665c0,44.294-13.483,86.259-39.086,121.938l121.701,121.701c13.408,13.409,13.408,35.229,0,48.639
		C495.238,508.648,486.43,512,477.623,512z M332.559,356.578c2.624,0,5.236,1.008,7.215,2.987l127.954,127.954
		c5.456,5.458,14.334,5.456,19.791,0c5.456-5.457,5.456-14.334-0.001-19.79L359.565,339.774c-3.646-3.646-3.997-9.442-0.817-13.501
		c26.286-33.56,40.182-73.882,40.182-116.608c-0.001-104.362-84.905-189.266-189.266-189.266S20.399,105.303,20.399,209.665
		S105.303,398.93,209.664,398.93c42.726,0,83.049-13.895,116.608-40.182C328.128,357.294,330.348,356.578,332.559,356.578z"/>
	<path style="fill:#4D4D4D;" d="M209.665,373.091c-90.114,0-163.427-73.313-163.427-163.426
		c0-90.115,73.313-163.427,163.427-163.427s163.427,73.313,163.427,163.427C373.091,299.778,299.777,373.091,209.665,373.091z
		 M209.665,66.636c-78.866,0-143.028,64.162-143.028,143.028s64.162,143.027,143.028,143.027s143.028-64.161,143.028-143.027
		S288.53,66.636,209.665,66.636z"/>
	<path style="fill:#4D4D4D;" d="M308.026,240.531H110.353c-5.633,0-10.2-4.567-10.2-10.2v-40.64c0-5.632,4.566-10.2,10.2-10.2
		h197.673c5.632,0,10.2,4.567,10.2,10.2v40.64C318.225,235.964,313.659,240.531,308.026,240.531z M120.552,220.132h177.274v-20.241
		H120.552V220.132z"/>
	<path style="fill:#4D4D4D;" d="M315.679,279.47c-1.696,0-3.416-0.423-4.998-1.316c-4.908-2.765-6.644-8.986-3.879-13.893
		c1.144-2.032,2.24-4.13,3.257-6.235c2.447-5.074,8.547-7.203,13.618-4.753c5.074,2.447,7.202,8.545,4.753,13.618
		c-1.204,2.494-2.5,4.978-3.856,7.384C322.701,277.601,319.241,279.47,315.679,279.47z"/>
	<path style="fill:#4D4D4D;" d="M270.298,325.309c-3.529,0-6.959-1.833-8.848-5.11c-2.812-4.88-1.134-11.116,3.746-13.93
		c9.2-5.3,17.597-11.887,24.958-19.576c3.895-4.069,10.353-4.21,14.421-0.315c4.069,3.895,4.21,10.352,0.315,14.421
		c-8.701,9.09-18.63,16.877-29.51,23.146C273.775,324.871,272.024,325.309,270.298,325.309z"/>
</g>
</svg>